<svg width="51" height="46" viewBox="0 0 51 46" fill="none" xmlns="http://www.w3.org/2000/svg">
<path d="M45.4544 29.636C46.2553 29.4242 46.7329 28.6033 46.5211 27.8024L43.0701 14.751C42.8583 13.9501 42.0374 13.4725 41.2365 13.6842C40.4356 13.896 39.958 14.717 40.1698 15.5179L43.2373 27.1191L31.6361 30.1867C30.8352 30.3985 30.3576 31.2194 30.5693 32.0203C30.7811 32.8212 31.6021 33.2988 32.403 33.0871L45.4544 29.636ZM30.2457 21.2966L44.3167 29.4824L45.8252 26.8893L31.7543 18.7034L30.2457 21.2966Z" fill="#0062A5"/>
<rect x="2.69562" y="29.8466" width="21.3669" height="2" transform="rotate(-34.6582 2.69562 29.8466)" fill="#0062A5" stroke="#0062A5"/>
<rect x="23.6819" y="16" width="3" height="1" transform="rotate(19.9343 23.6819 16)" fill="#0062A5"/>
<rect x="28" y="15.0205" width="3" height="1.5" transform="rotate(-0.391477 28 15.0205)" fill="#0062A5"/>
<rect x="25" y="19.5996" width="3" height="2" transform="rotate(-11.5292 25 19.5996)" fill="#0062A5"/>
<path d="M1.26 12V3.6H4.536C5.272 3.6 5.9 3.716 6.42 3.948C6.94 4.18 7.34 4.516 7.62 4.956C7.9 5.396 8.04 5.92 8.04 6.528C8.04 7.136 7.9 7.66 7.62 8.1C7.34 8.532 6.94 8.864 6.42 9.096C5.9 9.328 5.272 9.444 4.536 9.444H1.92L2.46 8.892V12H1.26ZM6.876 12L4.74 8.952H6.024L8.184 12H6.876ZM2.46 9.012L1.92 8.424H4.5C5.268 8.424 5.848 8.26 6.24 7.932C6.64 7.596 6.84 7.128 6.84 6.528C6.84 5.928 6.64 5.464 6.24 5.136C5.848 4.808 5.268 4.644 4.5 4.644H1.92L2.46 4.044V9.012ZM12.6428 12.072C11.9628 12.072 11.3628 11.932 10.8428 11.652C10.3308 11.372 9.93075 10.988 9.64275 10.5C9.36275 10.012 9.22275 9.452 9.22275 8.82C9.22275 8.188 9.35875 7.628 9.63075 7.14C9.91075 6.652 10.2908 6.272 10.7708 6C11.2588 5.72 11.8068 5.58 12.4148 5.58C13.0308 5.58 13.5748 5.716 14.0468 5.988C14.5188 6.26 14.8868 6.644 15.1508 7.14C15.4228 7.628 15.5588 8.2 15.5588 8.856C15.5588 8.904 15.5548 8.96 15.5468 9.024C15.5468 9.088 15.5428 9.148 15.5348 9.204H10.1228V8.376H14.9348L14.4668 8.664C14.4748 8.256 14.3908 7.892 14.2148 7.572C14.0388 7.252 13.7948 7.004 13.4828 6.828C13.1788 6.644 12.8228 6.552 12.4148 6.552C12.0148 6.552 11.6588 6.644 11.3468 6.828C11.0348 7.004 10.7908 7.256 10.6148 7.584C10.4388 7.904 10.3508 8.272 10.3508 8.688V8.88C10.3508 9.304 10.4468 9.684 10.6388 10.02C10.8388 10.348 11.1148 10.604 11.4668 10.788C11.8188 10.972 12.2228 11.064 12.6788 11.064C13.0548 11.064 13.3948 11 13.6988 10.872C14.0108 10.744 14.2828 10.552 14.5148 10.296L15.1508 11.04C14.8628 11.376 14.5028 11.632 14.0708 11.808C13.6468 11.984 13.1708 12.072 12.6428 12.072ZM25.1144 5.58C25.6264 5.58 26.0784 5.68 26.4704 5.88C26.8624 6.08 27.1664 6.384 27.3824 6.792C27.6064 7.2 27.7184 7.716 27.7184 8.34V12H26.5664V8.472C26.5664 7.856 26.4224 7.392 26.1344 7.08C25.8464 6.768 25.4424 6.612 24.9224 6.612C24.5384 6.612 24.2024 6.692 23.9144 6.852C23.6264 7.012 23.4024 7.248 23.2424 7.56C23.0904 7.872 23.0144 8.26 23.0144 8.724V12H21.8624V8.472C21.8624 7.856 21.7184 7.392 21.4304 7.08C21.1504 6.768 20.7464 6.612 20.2184 6.612C19.8424 6.612 19.5104 6.692 19.2224 6.852C18.9344 7.012 18.7104 7.248 18.5504 7.56C18.3904 7.872 18.3104 8.26 18.3104 8.724V12H17.1584V5.64H18.2624V7.332L18.0824 6.9C18.2824 6.484 18.5904 6.16 19.0064 5.928C19.4224 5.696 19.9064 5.58 20.4584 5.58C21.0664 5.58 21.5904 5.732 22.0304 6.036C22.4704 6.332 22.7584 6.784 22.8944 7.392L22.4264 7.2C22.6184 6.712 22.9544 6.32 23.4344 6.024C23.9144 5.728 24.4744 5.58 25.1144 5.58ZM32.5621 12.072C31.9221 12.072 31.3541 11.932 30.8581 11.652C30.3621 11.372 29.9701 10.988 29.6821 10.5C29.3941 10.004 29.2501 9.444 29.2501 8.82C29.2501 8.188 29.3941 7.628 29.6821 7.14C29.9701 6.652 30.3621 6.272 30.8581 6C31.3541 5.72 31.9221 5.58 32.5621 5.58C33.1941 5.58 33.7581 5.72 34.2541 6C34.7581 6.272 35.1501 6.652 35.4301 7.14C35.7181 7.62 35.8621 8.18 35.8621 8.82C35.8621 9.452 35.7181 10.012 35.4301 10.5C35.1501 10.988 34.7581 11.372 34.2541 11.652C33.7581 11.932 33.1941 12.072 32.5621 12.072ZM32.5621 11.064C32.9701 11.064 33.3341 10.972 33.6541 10.788C33.9821 10.604 34.2381 10.344 34.4221 10.008C34.6061 9.664 34.6981 9.268 34.6981 8.82C34.6981 8.364 34.6061 7.972 34.4221 7.644C34.2381 7.308 33.9821 7.048 33.6541 6.864C33.3341 6.68 32.9701 6.588 32.5621 6.588C32.1541 6.588 31.7901 6.68 31.4701 6.864C31.1501 7.048 30.8941 7.308 30.7021 7.644C30.5101 7.972 30.4141 8.364 30.4141 8.82C30.4141 9.268 30.5101 9.664 30.7021 10.008C30.8941 10.344 31.1501 10.604 31.4701 10.788C31.7901 10.972 32.1541 11.064 32.5621 11.064ZM38.9475 12L36.1635 5.64H37.3635L39.8355 11.4H39.2595L41.7795 5.64H42.9075L40.1235 12H38.9475ZM46.6388 12.072C45.9588 12.072 45.3588 11.932 44.8388 11.652C44.3268 11.372 43.9268 10.988 43.6388 10.5C43.3588 10.012 43.2188 9.452 43.2188 8.82C43.2188 8.188 43.3548 7.628 43.6268 7.14C43.9068 6.652 44.2868 6.272 44.7668 6C45.2548 5.72 45.8028 5.58 46.4108 5.58C47.0268 5.58 47.5708 5.716 48.0428 5.988C48.5148 6.26 48.8828 6.644 49.1468 7.14C49.4188 7.628 49.5548 8.2 49.5548 8.856C49.5548 8.904 49.5508 8.96 49.5428 9.024C49.5428 9.088 49.5388 9.148 49.5308 9.204H44.1188V8.376H48.9308L48.4628 8.664C48.4708 8.256 48.3868 7.892 48.2108 7.572C48.0348 7.252 47.7908 7.004 47.4788 6.828C47.1748 6.644 46.8188 6.552 46.4108 6.552C46.0108 6.552 45.6548 6.644 45.3428 6.828C45.0308 7.004 44.7868 7.256 44.6108 7.584C44.4348 7.904 44.3468 8.272 44.3468 8.688V8.88C44.3468 9.304 44.4428 9.684 44.6348 10.02C44.8348 10.348 45.1108 10.604 45.4628 10.788C45.8148 10.972 46.2188 11.064 46.6748 11.064C47.0508 11.064 47.3908 11 47.6948 10.872C48.0068 10.744 48.2788 10.552 48.5108 10.296L49.1468 11.04C48.8588 11.376 48.4988 11.632 48.0668 11.808C47.6428 11.984 47.1668 12.072 46.6388 12.072Z" fill="black"/>
<path d="M14.26 43V34.6H17.536C18.272 34.6 18.9 34.716 19.42 34.948C19.94 35.18 20.34 35.516 20.62 35.956C20.9 36.396 21.04 36.92 21.04 37.528C21.04 38.136 20.9 38.66 20.62 39.1C20.34 39.532 19.94 39.868 19.42 40.108C18.9 40.34 18.272 40.456 17.536 40.456H14.92L15.46 39.892V43H14.26ZM15.46 40.012L14.92 39.412H17.5C18.268 39.412 18.848 39.248 19.24 38.92C19.64 38.592 19.84 38.128 19.84 37.528C19.84 36.928 19.64 36.464 19.24 36.136C18.848 35.808 18.268 35.644 17.5 35.644H14.92L15.46 35.044V40.012ZM26.5244 43V41.656L26.4644 41.404V39.112C26.4644 38.624 26.3204 38.248 26.0324 37.984C25.7524 37.712 25.3284 37.576 24.7604 37.576C24.3844 37.576 24.0164 37.64 23.6564 37.768C23.2964 37.888 22.9924 38.052 22.7444 38.26L22.2644 37.396C22.5924 37.132 22.9844 36.932 23.4404 36.796C23.9044 36.652 24.3884 36.58 24.8924 36.58C25.7644 36.58 26.4364 36.792 26.9084 37.216C27.3804 37.64 27.6164 38.288 27.6164 39.16V43H26.5244ZM24.4364 43.072C23.9644 43.072 23.5484 42.992 23.1884 42.832C22.8364 42.672 22.5644 42.452 22.3724 42.172C22.1804 41.884 22.0844 41.56 22.0844 41.2C22.0844 40.856 22.1644 40.544 22.3244 40.264C22.4924 39.984 22.7604 39.76 23.1284 39.592C23.5044 39.424 24.0084 39.34 24.6404 39.34H26.6564V40.168H24.6884C24.1124 40.168 23.7244 40.264 23.5244 40.456C23.3244 40.648 23.2244 40.88 23.2244 41.152C23.2244 41.464 23.3484 41.716 23.5964 41.908C23.8444 42.092 24.1884 42.184 24.6284 42.184C25.0604 42.184 25.4364 42.088 25.7564 41.896C26.0844 41.704 26.3204 41.424 26.4644 41.056L26.6924 41.848C26.5404 42.224 26.2724 42.524 25.8884 42.748C25.5044 42.964 25.0204 43.072 24.4364 43.072ZM29.7483 43V36.64H30.9003V43H29.7483ZM30.3243 35.416C30.1003 35.416 29.9123 35.344 29.7603 35.2C29.6163 35.056 29.5443 34.88 29.5443 34.672C29.5443 34.456 29.6163 34.276 29.7603 34.132C29.9123 33.988 30.1003 33.916 30.3243 33.916C30.5483 33.916 30.7323 33.988 30.8763 34.132C31.0283 34.268 31.1043 34.44 31.1043 34.648C31.1043 34.864 31.0323 35.048 30.8883 35.2C30.7443 35.344 30.5563 35.416 30.3243 35.416ZM33.0998 43V36.64H34.2038V38.368L34.0958 37.936C34.2718 37.496 34.5678 37.16 34.9838 36.928C35.3998 36.696 35.9118 36.58 36.5198 36.58V37.696C36.4718 37.688 36.4238 37.684 36.3758 37.684C36.3358 37.684 36.2958 37.684 36.2558 37.684C35.6398 37.684 35.1518 37.868 34.7918 38.236C34.4318 38.604 34.2518 39.136 34.2518 39.832V43H33.0998Z" fill="black"/>
</svg>
