<svg width="258" height="49" viewBox="0 0 258 49" fill="none" xmlns="http://www.w3.org/2000/svg">
<path d="M53.5 24.5C53.5 37.7102 41.6824 48.5 27 48.5C12.3176 48.5 0.5 37.7102 0.5 24.5C0.5 11.2898 12.3176 0.5 27 0.5C41.6824 0.5 53.5 11.2898 53.5 24.5Z" fill="#0078CC" stroke="#0078CC"/>
<path d="M257.5 24.5C257.5 37.7102 245.682 48.5 231 48.5C216.318 48.5 204.5 37.7102 204.5 24.5C204.5 11.2898 216.318 0.5 231 0.5C245.682 0.5 257.5 11.2898 257.5 24.5Z" stroke="#0078CC"/>
<path d="M155.5 24.5C155.5 37.7102 143.682 48.5 129 48.5C114.318 48.5 102.5 37.7102 102.5 24.5C102.5 11.2898 114.318 0.5 129 0.5C143.682 0.5 155.5 11.2898 155.5 24.5Z" stroke="#0078CC"/>
<line x1="54" y1="23.5" x2="102" y2="23.5" stroke="#0078CC"/>
<line x1="156" y1="23.5" x2="204" y2="23.5" stroke="#0078CC"/>
<path d="M26.656 30V19.44L27.344 20.192H24.128V18.8H28.24V30H26.656Z" fill="#E8E8E8"/>
<path d="M124.592 30V28.912L129.152 24.512C129.557 24.128 129.856 23.792 130.048 23.504C130.251 23.2053 130.384 22.9333 130.448 22.688C130.523 22.432 130.56 22.1867 130.56 21.952C130.56 21.376 130.357 20.9227 129.952 20.592C129.547 20.2613 128.955 20.096 128.176 20.096C127.579 20.096 127.04 20.1973 126.56 20.4C126.08 20.592 125.664 20.896 125.312 21.312L124.224 20.368C124.651 19.824 125.221 19.408 125.936 19.12C126.661 18.8213 127.456 18.672 128.32 18.672C129.099 18.672 129.776 18.8 130.352 19.056C130.928 19.3013 131.371 19.6587 131.68 20.128C132 20.5973 132.16 21.152 132.16 21.792C132.16 22.1547 132.112 22.512 132.016 22.864C131.92 23.216 131.739 23.5893 131.472 23.984C131.205 24.3787 130.821 24.8213 130.32 25.312L126.256 29.232L125.872 28.608H132.64V30H124.592Z" fill="#212121"/>
<path d="M230.192 30.128C229.403 30.128 228.635 30.0053 227.888 29.76C227.152 29.5147 226.549 29.184 226.08 28.768L226.816 27.504C227.189 27.856 227.675 28.144 228.272 28.368C228.869 28.592 229.509 28.704 230.192 28.704C231.024 28.704 231.669 28.528 232.128 28.176C232.597 27.8133 232.832 27.328 232.832 26.72C232.832 26.1333 232.608 25.664 232.16 25.312C231.723 24.9493 231.024 24.768 230.064 24.768H229.168V23.648L232.496 19.552L232.72 20.192H226.592V18.8H233.984V19.888L230.672 23.968L229.84 23.472H230.368C231.723 23.472 232.736 23.776 233.408 24.384C234.091 24.992 234.432 25.7653 234.432 26.704C234.432 27.3333 234.277 27.9093 233.968 28.432C233.659 28.9547 233.189 29.3707 232.56 29.68C231.941 29.9787 231.152 30.128 230.192 30.128Z" fill="#212121"/>
</svg>
