<svg width="170" height="369" viewBox="0 0 170 369" fill="none" xmlns="http://www.w3.org/2000/svg">
<path d="M84.1874 47.2865C70.9198 47.236 60.2274 36.7299 60.2764 23.8485C60.3254 10.9672 71.0975 0.542741 84.3651 0.593229C97.6326 0.643716 108.325 11.1498 108.276 24.0312C108.227 36.9125 97.4549 47.337 84.1874 47.2865Z" fill="#0078CC" stroke="#0078CC"/>
<path d="M83.5017 367.462C70.2342 367.411 59.5417 356.905 59.5908 344.024C59.6398 331.143 70.4119 320.718 83.6794 320.769C96.947 320.819 107.639 331.325 107.59 344.207C107.541 357.088 96.7693 367.512 83.5017 367.462Z" stroke="#0078CC"/>
<path d="M83.8446 276.374C70.577 276.323 59.8846 265.817 59.9336 252.936C59.9826 240.054 70.7547 229.63 84.0223 229.68C97.2898 229.731 107.982 240.237 107.933 253.118C107.884 266 97.1121 276.424 83.8446 276.374Z" fill="#0078CC" stroke="#0078CC"/>
<line x1="83.7621" y1="229.184" x2="83.7621" y2="181.999" stroke="#0078CC"/>
<path d="M84.4309 30.2922L84.4309 19.7322L85.1189 20.4842L81.9029 20.4842L81.9029 19.0922L86.0149 19.0922L86.0149 30.2922L84.4309 30.2922Z" fill="#E8E8E8"/>
<path d="M80.0232 259.613L80.0232 258.525L84.5832 254.125C84.9886 253.741 85.2872 253.405 85.4792 253.117C85.6819 252.818 85.8152 252.546 85.8792 252.301C85.9539 252.045 85.9912 251.8 85.9912 251.565C85.9912 250.989 85.7886 250.536 85.3832 250.205C84.9779 249.874 84.3859 249.709 83.6072 249.709C83.0099 249.709 82.4712 249.81 81.9912 250.013C81.5112 250.205 81.0952 250.509 80.7432 250.925L79.6552 249.981C80.0819 249.437 80.6526 249.021 81.3672 248.733C82.0926 248.434 82.8872 248.285 83.7512 248.285C84.5299 248.285 85.2072 248.413 85.7832 248.669C86.3592 248.914 86.8019 249.272 87.1112 249.741C87.4312 250.21 87.5912 250.765 87.5912 251.405C87.5912 251.768 87.5432 252.125 87.4472 252.477C87.3512 252.829 87.1699 253.202 86.9032 253.597C86.6366 253.992 86.2526 254.434 85.7512 254.925L81.6872 258.845L81.3032 258.221L88.0712 258.221L88.0712 259.613L80.0232 259.613Z" fill="#E8E8E8"/>
<path d="M83.2804 349.829C82.4911 349.829 81.7231 349.707 80.9764 349.461C80.2404 349.216 79.6378 348.885 79.1684 348.469L79.9044 347.205C80.2778 347.557 80.7631 347.845 81.3604 348.069C81.9578 348.293 82.5978 348.405 83.2804 348.405C84.1124 348.405 84.7578 348.229 85.2164 347.877C85.6858 347.515 85.9204 347.029 85.9204 346.421C85.9204 345.835 85.6964 345.365 85.2484 345.013C84.8111 344.651 84.1124 344.469 83.1524 344.469L82.2564 344.469L82.2564 343.349L85.5844 339.253L85.8084 339.893L79.6804 339.893L79.6804 338.501L87.0724 338.501L87.0724 339.589L83.7604 343.669L82.9284 343.173L83.4564 343.173C84.8111 343.173 85.8244 343.477 86.4964 344.085C87.1791 344.693 87.5204 345.467 87.5204 346.405C87.5204 347.035 87.3658 347.611 87.0564 348.133C86.7471 348.656 86.2778 349.072 85.6484 349.381C85.0298 349.68 84.2404 349.829 83.2804 349.829Z" fill="#121212"/>
<path d="M19.6623 102L19.6623 92.2L23.7923 92.2C24.8377 92.2 25.757 92.4053 26.5503 92.816C27.353 93.2267 27.9737 93.8007 28.4123 94.538C28.8603 95.2753 29.0843 96.1293 29.0843 97.1C29.0843 98.0707 28.8603 98.9247 28.4123 99.662C27.9737 100.399 27.353 100.973 26.5503 101.384C25.757 101.795 24.8377 102 23.7923 102L19.6623 102ZM21.0623 100.782L23.7083 100.782C24.5203 100.782 25.2203 100.628 25.8083 100.32C26.4057 100.012 26.8677 99.5827 27.1943 99.032C27.521 98.472 27.6843 97.828 27.6843 97.1C27.6843 96.3627 27.521 95.7187 27.1943 95.168C26.8677 94.6173 26.4057 94.188 25.8083 93.88C25.2203 93.572 24.5203 93.418 23.7083 93.418L21.0623 93.418L21.0623 100.782ZM35.6387 102L35.6387 100.432L35.5687 100.138L35.5687 97.464C35.5687 96.8947 35.4007 96.456 35.0647 96.148C34.7381 95.8307 34.2434 95.672 33.5807 95.672C33.1421 95.672 32.7127 95.7467 32.2927 95.896C31.8727 96.036 31.5181 96.2273 31.2287 96.47L30.6687 95.462C31.0514 95.154 31.5087 94.9207 32.0407 94.762C32.5821 94.594 33.1467 94.51 33.7347 94.51C34.7521 94.51 35.5361 94.7573 36.0867 95.252C36.6374 95.7467 36.9127 96.5027 36.9127 97.52L36.9127 102L35.6387 102ZM33.2027 102.084C32.6521 102.084 32.1667 101.991 31.7467 101.804C31.3361 101.617 31.0187 101.361 30.7947 101.034C30.5707 100.698 30.4587 100.32 30.4587 99.9C30.4587 99.4987 30.5521 99.1347 30.7387 98.808C30.9347 98.4813 31.2474 98.22 31.6767 98.024C32.1154 97.828 32.7034 97.73 33.4407 97.73L35.7927 97.73L35.7927 98.696L33.4967 98.696C32.8247 98.696 32.3721 98.808 32.1387 99.032C31.9054 99.256 31.7887 99.5267 31.7887 99.844C31.7887 100.208 31.9334 100.502 32.2227 100.726C32.5121 100.941 32.9134 101.048 33.4267 101.048C33.9307 101.048 34.3694 100.936 34.7427 100.712C35.1254 100.488 35.4007 100.161 35.5687 99.732L35.8347 100.656C35.6574 101.095 35.3447 101.445 34.8967 101.706C34.4487 101.958 33.8841 102.084 33.2027 102.084ZM41.9479 102.084C41.2012 102.084 40.6226 101.883 40.2119 101.482C39.8012 101.081 39.5959 100.507 39.5959 99.76L39.5959 92.956L40.9399 92.956L40.9399 99.704C40.9399 100.105 41.0379 100.413 41.2339 100.628C41.4392 100.843 41.7286 100.95 42.1019 100.95C42.5219 100.95 42.8719 100.833 43.1519 100.6L43.5719 101.566C43.3666 101.743 43.1192 101.874 42.8299 101.958C42.5499 102.042 42.2559 102.084 41.9479 102.084ZM38.3359 95.686L38.3359 94.58L43.0679 94.58L43.0679 95.686L38.3359 95.686ZM49.8028 102L49.8028 100.432L49.7328 100.138L49.7328 97.464C49.7328 96.8947 49.5648 96.456 49.2288 96.148C48.9021 95.8307 48.4075 95.672 47.7448 95.672C47.3061 95.672 46.8768 95.7467 46.4568 95.896C46.0368 96.036 45.6821 96.2273 45.3928 96.47L44.8328 95.462C45.2155 95.154 45.6728 94.9207 46.2048 94.762C46.7461 94.594 47.3108 94.51 47.8988 94.51C48.9161 94.51 49.7001 94.7573 50.2508 95.252C50.8015 95.7467 51.0768 96.5027 51.0768 97.52L51.0768 102L49.8028 102ZM47.3668 102.084C46.8161 102.084 46.3308 101.991 45.9108 101.804C45.5001 101.617 45.1828 101.361 44.9588 101.034C44.7348 100.698 44.6228 100.32 44.6228 99.9C44.6228 99.4987 44.7161 99.1347 44.9028 98.808C45.0988 98.4813 45.4115 98.22 45.8408 98.024C46.2795 97.828 46.8675 97.73 47.6048 97.73L49.9568 97.73L49.9568 98.696L47.6608 98.696C46.9888 98.696 46.5361 98.808 46.3028 99.032C46.0695 99.256 45.9528 99.5267 45.9528 99.844C45.9528 100.208 46.0975 100.502 46.3868 100.726C46.6761 100.941 47.0775 101.048 47.5908 101.048C48.0948 101.048 48.5335 100.936 48.9068 100.712C49.2895 100.488 49.5648 100.161 49.7328 99.732L49.9988 100.656C49.8215 101.095 49.5088 101.445 49.0608 101.706C48.6128 101.958 48.0481 102.084 47.3668 102.084ZM57.5197 102L57.5197 93.922C57.5197 93.194 57.7297 92.6153 58.1497 92.186C58.5791 91.7473 59.1857 91.528 59.9697 91.528C60.2591 91.528 60.5344 91.5653 60.7957 91.64C61.0664 91.7053 61.2951 91.8127 61.4817 91.962L61.0757 92.984C60.9357 92.872 60.7771 92.788 60.5997 92.732C60.4224 92.6667 60.2357 92.634 60.0397 92.634C59.6477 92.634 59.3491 92.746 59.1437 92.97C58.9384 93.1847 58.8357 93.5067 58.8357 93.936L58.8357 94.93L58.8637 95.546L58.8637 102L57.5197 102ZM56.2597 95.686L56.2597 94.58L60.9917 94.58L60.9917 95.686L56.2597 95.686ZM62.2593 102L62.2593 94.58L63.5473 94.58L63.5473 96.596L63.4213 96.092C63.6266 95.5787 63.972 95.1867 64.4573 94.916C64.9426 94.6453 65.54 94.51 66.2493 94.51L66.2493 95.812C66.1933 95.8027 66.1373 95.798 66.0813 95.798C66.0346 95.798 65.988 95.798 65.9413 95.798C65.2226 95.798 64.6533 96.0127 64.2333 96.442C63.8133 96.8713 63.6033 97.492 63.6033 98.304L63.6033 102L62.2593 102ZM71.0154 102.084C70.2687 102.084 69.6061 101.921 69.0274 101.594C68.4487 101.267 67.9914 100.819 67.6554 100.25C67.3194 99.6713 67.1514 99.018 67.1514 98.29C67.1514 97.5527 67.3194 96.8993 67.6554 96.33C67.9914 95.7607 68.4487 95.3173 69.0274 95C69.6061 94.6733 70.2687 94.51 71.0154 94.51C71.7527 94.51 72.4107 94.6733 72.9894 95C73.5774 95.3173 74.0347 95.7607 74.3614 96.33C74.6974 96.89 74.8654 97.5433 74.8654 98.29C74.8654 99.0273 74.6974 99.6807 74.3614 100.25C74.0347 100.819 73.5774 101.267 72.9894 101.594C72.4107 101.921 71.7527 102.084 71.0154 102.084ZM71.0154 100.908C71.4914 100.908 71.9161 100.801 72.2894 100.586C72.6721 100.371 72.9707 100.068 73.1854 99.676C73.4001 99.2747 73.5074 98.8127 73.5074 98.29C73.5074 97.758 73.4001 97.3007 73.1854 96.918C72.9707 96.526 72.6721 96.2227 72.2894 96.008C71.9161 95.7933 71.4914 95.686 71.0154 95.686C70.5394 95.686 70.1147 95.7933 69.7414 96.008C69.3681 96.2227 69.0694 96.526 68.8454 96.918C68.6214 97.3007 68.5094 97.758 68.5094 98.29C68.5094 98.8127 68.6214 99.2747 68.8454 99.676C69.0694 100.068 69.3681 100.371 69.7414 100.586C70.1147 100.801 70.5394 100.908 71.0154 100.908ZM86.0061 94.51C86.6035 94.51 87.1308 94.6267 87.5881 94.86C88.0455 95.0933 88.4001 95.448 88.6521 95.924C88.9135 96.4 89.0441 97.002 89.0441 97.73L89.0441 102L87.7001 102L87.7001 97.884C87.7001 97.1653 87.5321 96.624 87.1961 96.26C86.8601 95.896 86.3888 95.714 85.7821 95.714C85.3341 95.714 84.9421 95.8073 84.6061 95.994C84.2701 96.1807 84.0088 96.456 83.8221 96.82C83.6448 97.184 83.5561 97.6367 83.5561 98.178L83.5561 102L82.2121 102L82.2121 97.884C82.2121 97.1653 82.0441 96.624 81.7081 96.26C81.3815 95.896 80.9101 95.714 80.2941 95.714C79.8555 95.714 79.4681 95.8073 79.1321 95.994C78.7961 96.1807 78.5348 96.456 78.3481 96.82C78.1615 97.184 78.0681 97.6367 78.0681 98.178L78.0681 102L76.7241 102L76.7241 94.58L78.0121 94.58L78.0121 96.554L77.8021 96.05C78.0355 95.5647 78.3948 95.1867 78.8801 94.916C79.3655 94.6453 79.9301 94.51 80.5741 94.51C81.2835 94.51 81.8948 94.6873 82.4081 95.042C82.9215 95.3873 83.2575 95.9147 83.4161 96.624L82.8701 96.4C83.0941 95.8307 83.4861 95.3733 84.0461 95.028C84.6061 94.6827 85.2595 94.51 86.0061 94.51ZM95.5989 102.084C95.3375 102.084 95.1135 101.995 94.9269 101.818C94.7402 101.631 94.6469 101.398 94.6469 101.118C94.6469 100.838 94.7402 100.609 94.9269 100.432C95.1135 100.255 95.3375 100.166 95.5989 100.166C95.8509 100.166 96.0655 100.255 96.2429 100.432C96.4295 100.609 96.5229 100.838 96.5229 101.118C96.5229 101.398 96.4295 101.631 96.2429 101.818C96.0655 101.995 95.8509 102.084 95.5989 102.084ZM101.519 102.084C100.763 102.084 100.086 101.921 99.4887 101.594C98.9007 101.267 98.4387 100.819 98.1027 100.25C97.7667 99.6807 97.5987 99.0273 97.5987 98.29C97.5987 97.5527 97.7667 96.8993 98.1027 96.33C98.4387 95.7607 98.9007 95.3173 99.4887 95C100.086 94.6733 100.763 94.51 101.519 94.51C102.191 94.51 102.788 94.6453 103.311 94.916C103.843 95.1773 104.253 95.5693 104.543 96.092L103.521 96.75C103.278 96.386 102.979 96.12 102.625 95.952C102.279 95.7747 101.906 95.686 101.505 95.686C101.019 95.686 100.585 95.7933 100.203 96.008C99.82 96.2227 99.5167 96.526 99.2927 96.918C99.0687 97.3007 98.9567 97.758 98.9567 98.29C98.9567 98.822 99.0687 99.284 99.2927 99.676C99.5167 100.068 99.82 100.371 100.203 100.586C100.585 100.801 101.019 100.908 101.505 100.908C101.906 100.908 102.279 100.824 102.625 100.656C102.979 100.479 103.278 100.208 103.521 99.844L104.543 100.488C104.253 101.001 103.843 101.398 103.311 101.678C102.788 101.949 102.191 102.084 101.519 102.084ZM108.411 102.084C107.795 102.084 107.207 102 106.647 101.832C106.096 101.664 105.662 101.459 105.345 101.216L105.905 100.152C106.222 100.367 106.614 100.549 107.081 100.698C107.547 100.847 108.023 100.922 108.509 100.922C109.134 100.922 109.582 100.833 109.853 100.656C110.133 100.479 110.273 100.231 110.273 99.914C110.273 99.6807 110.189 99.4987 110.021 99.368C109.853 99.2373 109.629 99.1393 109.349 99.074C109.078 99.0087 108.775 98.9527 108.439 98.906C108.103 98.85 107.767 98.7847 107.431 98.71C107.095 98.626 106.787 98.514 106.507 98.374C106.227 98.2247 106.003 98.024 105.835 97.772C105.667 97.5107 105.583 97.1653 105.583 96.736C105.583 96.288 105.709 95.896 105.961 95.56C106.213 95.224 106.567 94.9673 107.025 94.79C107.491 94.6033 108.042 94.51 108.677 94.51C109.162 94.51 109.652 94.5707 110.147 94.692C110.651 94.804 111.061 94.9673 111.379 95.182L110.805 96.246C110.469 96.022 110.119 95.868 109.755 95.784C109.391 95.7 109.027 95.658 108.663 95.658C108.075 95.658 107.636 95.756 107.347 95.952C107.057 96.1387 106.913 96.3813 106.913 96.68C106.913 96.932 106.997 97.128 107.165 97.268C107.342 97.3987 107.566 97.5013 107.837 97.576C108.117 97.6507 108.425 97.716 108.761 97.772C109.097 97.8187 109.433 97.884 109.769 97.968C110.105 98.0427 110.408 98.15 110.679 98.29C110.959 98.43 111.183 98.626 111.351 98.878C111.528 99.13 111.617 99.466 111.617 99.886C111.617 100.334 111.486 100.721 111.225 101.048C110.963 101.375 110.595 101.631 110.119 101.818C109.643 101.995 109.073 102.084 108.411 102.084ZM115.106 102L111.858 94.58L113.258 94.58L116.142 101.3L115.47 101.3L118.41 94.58L119.726 94.58L116.478 102L115.106 102ZM124.936 102L124.936 93.922C124.936 93.194 125.146 92.6153 125.566 92.186C125.995 91.7473 126.602 91.528 127.386 91.528C127.675 91.528 127.95 91.5653 128.212 91.64C128.482 91.7053 128.711 91.8127 128.898 91.962L128.492 92.984C128.352 92.872 128.193 92.788 128.016 92.732C127.838 92.6667 127.652 92.634 127.456 92.634C127.064 92.634 126.765 92.746 126.56 92.97C126.354 93.1847 126.252 93.5067 126.252 93.936L126.252 94.93L126.28 95.546L126.28 102L124.936 102ZM123.676 95.686L123.676 94.58L128.408 94.58L128.408 95.686L123.676 95.686ZM129.682 102L129.682 94.58L131.026 94.58L131.026 102L129.682 102ZM130.354 93.152C130.092 93.152 129.873 93.068 129.696 92.9C129.528 92.732 129.444 92.5267 129.444 92.284C129.444 92.032 129.528 91.822 129.696 91.654C129.873 91.486 130.092 91.402 130.354 91.402C130.615 91.402 130.83 91.486 130.998 91.654C131.175 91.8127 131.264 92.0133 131.264 92.256C131.264 92.508 131.18 92.7227 131.012 92.9C130.844 93.068 130.624 93.152 130.354 93.152ZM133.585 102L133.585 91.612L134.929 91.612L134.929 102L133.585 102ZM140.8 102.084C140.006 102.084 139.306 101.921 138.7 101.594C138.102 101.267 137.636 100.819 137.3 100.25C136.973 99.6807 136.81 99.0273 136.81 98.29C136.81 97.5527 136.968 96.8993 137.286 96.33C137.612 95.7607 138.056 95.3173 138.616 95C139.185 94.6733 139.824 94.51 140.534 94.51C141.252 94.51 141.887 94.6687 142.438 94.986C142.988 95.3033 143.418 95.7513 143.726 96.33C144.043 96.8993 144.202 97.5667 144.202 98.332C144.202 98.388 144.197 98.4533 144.188 98.528C144.188 98.6027 144.183 98.6727 144.174 98.738L137.86 98.738L137.86 97.772L143.474 97.772L142.928 98.108C142.937 97.632 142.839 97.2073 142.634 96.834C142.428 96.4607 142.144 96.1713 141.78 95.966C141.425 95.7513 141.01 95.644 140.534 95.644C140.067 95.644 139.652 95.7513 139.288 95.966C138.924 96.1713 138.639 96.4653 138.434 96.848C138.228 97.2213 138.126 97.6507 138.126 98.136L138.126 98.36C138.126 98.8547 138.238 99.298 138.462 99.69C138.695 100.073 139.017 100.371 139.428 100.586C139.838 100.801 140.31 100.908 140.842 100.908C141.28 100.908 141.677 100.833 142.032 100.684C142.396 100.535 142.713 100.311 142.984 100.012L143.726 100.88C143.39 101.272 142.97 101.571 142.466 101.776C141.971 101.981 141.416 102.084 140.8 102.084ZM148.196 102.084C147.58 102.084 146.992 102 146.432 101.832C145.881 101.664 145.447 101.459 145.13 101.216L145.69 100.152C146.007 100.367 146.399 100.549 146.866 100.698C147.333 100.847 147.809 100.922 148.294 100.922C148.919 100.922 149.367 100.833 149.638 100.656C149.918 100.479 150.058 100.231 150.058 99.914C150.058 99.6807 149.974 99.4987 149.806 99.368C149.638 99.2373 149.414 99.1393 149.134 99.074C148.863 99.0087 148.56 98.9527 148.224 98.906C147.888 98.85 147.552 98.7847 147.216 98.71C146.88 98.626 146.572 98.514 146.292 98.374C146.012 98.2247 145.788 98.024 145.62 97.772C145.452 97.5107 145.368 97.1653 145.368 96.736C145.368 96.288 145.494 95.896 145.746 95.56C145.998 95.224 146.353 94.9673 146.81 94.79C147.277 94.6033 147.827 94.51 148.462 94.51C148.947 94.51 149.437 94.5707 149.932 94.692C150.436 94.804 150.847 94.9673 151.164 95.182L150.59 96.246C150.254 96.022 149.904 95.868 149.54 95.784C149.176 95.7 148.812 95.658 148.448 95.658C147.86 95.658 147.421 95.756 147.132 95.952C146.843 96.1387 146.698 96.3813 146.698 96.68C146.698 96.932 146.782 97.128 146.95 97.268C147.127 97.3987 147.351 97.5013 147.622 97.576C147.902 97.6507 148.21 97.716 148.546 97.772C148.882 97.8187 149.218 97.884 149.554 97.968C149.89 98.0427 150.193 98.15 150.464 98.29C150.744 98.43 150.968 98.626 151.136 98.878C151.313 99.13 151.402 99.466 151.402 99.886C151.402 100.334 151.271 100.721 151.01 101.048C150.749 101.375 150.38 101.631 149.904 101.818C149.428 101.995 148.859 102.084 148.196 102.084ZM6.65577 119L6.65577 111.58L7.94378 111.58L7.94378 113.596L7.81778 113.092C8.02311 112.579 8.36844 112.187 8.85378 111.916C9.33911 111.645 9.93644 111.51 10.6458 111.51L10.6458 112.812C10.5898 112.803 10.5338 112.798 10.4778 112.798C10.4311 112.798 10.3844 112.798 10.3378 112.798C9.61911 112.798 9.04978 113.013 8.62978 113.442C8.20978 113.871 7.99977 114.492 7.99977 115.304L7.99977 119L6.65577 119ZM15.5379 119.084C14.7446 119.084 14.0446 118.921 13.4379 118.594C12.8406 118.267 12.3739 117.819 12.0379 117.25C11.7112 116.681 11.5479 116.027 11.5479 115.29C11.5479 114.553 11.7066 113.899 12.0239 113.33C12.3506 112.761 12.7939 112.317 13.3539 112C13.9232 111.673 14.5626 111.51 15.2719 111.51C15.9906 111.51 16.6252 111.669 17.1759 111.986C17.7266 112.303 18.1559 112.751 18.4639 113.33C18.7812 113.899 18.9399 114.567 18.9399 115.332C18.9399 115.388 18.9352 115.453 18.9259 115.528C18.9259 115.603 18.9212 115.673 18.9119 115.738L12.5979 115.738L12.5979 114.772L18.2119 114.772L17.6659 115.108C17.6752 114.632 17.5772 114.207 17.3719 113.834C17.1666 113.461 16.8819 113.171 16.5179 112.966C16.1632 112.751 15.7479 112.644 15.2719 112.644C14.8052 112.644 14.3899 112.751 14.0259 112.966C13.6619 113.171 13.3772 113.465 13.1719 113.848C12.9666 114.221 12.8639 114.651 12.8639 115.136L12.8639 115.36C12.8639 115.855 12.9759 116.298 13.1999 116.69C13.4332 117.073 13.7552 117.371 14.1659 117.586C14.5766 117.801 15.0479 117.908 15.5799 117.908C16.0186 117.908 16.4152 117.833 16.7699 117.684C17.1339 117.535 17.4512 117.311 17.7219 117.012L18.4639 117.88C18.1279 118.272 17.7079 118.571 17.2039 118.776C16.7092 118.981 16.1539 119.084 15.5379 119.084ZM24.0402 119.084C23.2842 119.084 22.6075 118.921 22.0102 118.594C21.4222 118.267 20.9602 117.819 20.6242 117.25C20.2882 116.681 20.1202 116.027 20.1202 115.29C20.1202 114.553 20.2882 113.899 20.6242 113.33C20.9602 112.761 21.4222 112.317 22.0102 112C22.6075 111.673 23.2842 111.51 24.0402 111.51C24.7122 111.51 25.3095 111.645 25.8322 111.916C26.3642 112.177 26.7748 112.569 27.0642 113.092L26.0422 113.75C25.7995 113.386 25.5008 113.12 25.1462 112.952C24.8008 112.775 24.4275 112.686 24.0262 112.686C23.5408 112.686 23.1068 112.793 22.7242 113.008C22.3415 113.223 22.0382 113.526 21.8142 113.918C21.5902 114.301 21.4782 114.758 21.4782 115.29C21.4782 115.822 21.5902 116.284 21.8142 116.676C22.0382 117.068 22.3415 117.371 22.7242 117.586C23.1068 117.801 23.5408 117.908 24.0262 117.908C24.4275 117.908 24.8008 117.824 25.1462 117.656C25.5008 117.479 25.7995 117.208 26.0422 116.844L27.0642 117.488C26.7748 118.001 26.3642 118.398 25.8322 118.678C25.3095 118.949 24.7122 119.084 24.0402 119.084ZM31.9988 119.084C31.2055 119.084 30.5055 118.921 29.8988 118.594C29.3015 118.267 28.8348 117.819 28.4988 117.25C28.1722 116.681 28.0088 116.027 28.0088 115.29C28.0088 114.553 28.1675 113.899 28.4848 113.33C28.8115 112.761 29.2548 112.317 29.8148 112C30.3842 111.673 31.0235 111.51 31.7328 111.51C32.4515 111.51 33.0862 111.669 33.6368 111.986C34.1875 112.303 34.6168 112.751 34.9248 113.33C35.2422 113.899 35.4008 114.567 35.4008 115.332C35.4008 115.388 35.3962 115.453 35.3868 115.528C35.3868 115.603 35.3822 115.673 35.3728 115.738L29.0588 115.738L29.0588 114.772L34.6728 114.772L34.1268 115.108C34.1362 114.632 34.0382 114.207 33.8328 113.834C33.6275 113.461 33.3428 113.171 32.9788 112.966C32.6242 112.751 32.2088 112.644 31.7328 112.644C31.2662 112.644 30.8508 112.751 30.4868 112.966C30.1228 113.171 29.8382 113.465 29.6328 113.848C29.4275 114.221 29.3248 114.651 29.3248 115.136L29.3248 115.36C29.3248 115.855 29.4368 116.298 29.6608 116.69C29.8942 117.073 30.2162 117.371 30.6268 117.586C31.0375 117.801 31.5088 117.908 32.0408 117.908C32.4795 117.908 32.8762 117.833 33.2308 117.684C33.5948 117.535 33.9122 117.311 34.1828 117.012L34.9248 117.88C34.5888 118.272 34.1688 118.571 33.6648 118.776C33.1702 118.981 32.6148 119.084 31.9988 119.084ZM37.2671 119L37.2671 111.58L38.6111 111.58L38.6111 119L37.2671 119ZM37.9391 110.152C37.6778 110.152 37.4584 110.068 37.2811 109.9C37.1131 109.732 37.0291 109.527 37.0291 109.284C37.0291 109.032 37.1131 108.822 37.2811 108.654C37.4584 108.486 37.6778 108.402 37.9391 108.402C38.2004 108.402 38.4151 108.486 38.5831 108.654C38.7604 108.813 38.8491 109.013 38.8491 109.256C38.8491 109.508 38.7651 109.723 38.5971 109.9C38.4291 110.068 38.2098 110.152 37.9391 110.152ZM43.1233 119L39.8753 111.58L41.2753 111.58L44.1593 118.3L43.4873 118.3L46.4273 111.58L47.7433 111.58L44.4953 119L43.1233 119ZM52.0965 119.084C51.3032 119.084 50.6032 118.921 49.9965 118.594C49.3992 118.267 48.9325 117.819 48.5965 117.25C48.2698 116.681 48.1065 116.027 48.1065 115.29C48.1065 114.553 48.2652 113.899 48.5825 113.33C48.9092 112.761 49.3525 112.317 49.9125 112C50.4818 111.673 51.1212 111.51 51.8305 111.51C52.5492 111.51 53.1838 111.669 53.7345 111.986C54.2852 112.303 54.7145 112.751 55.0225 113.33C55.3398 113.899 55.4985 114.567 55.4985 115.332C55.4985 115.388 55.4938 115.453 55.4845 115.528C55.4845 115.603 55.4798 115.673 55.4705 115.738L49.1565 115.738L49.1565 114.772L54.7705 114.772L54.2245 115.108C54.2338 114.632 54.1358 114.207 53.9305 113.834C53.7252 113.461 53.4405 113.171 53.0765 112.966C52.7218 112.751 52.3065 112.644 51.8305 112.644C51.3638 112.644 50.9485 112.751 50.5845 112.966C50.2205 113.171 49.9358 113.465 49.7305 113.848C49.5252 114.221 49.4225 114.651 49.4225 115.136L49.4225 115.36C49.4225 115.855 49.5345 116.298 49.7585 116.69C49.9918 117.073 50.3138 117.371 50.7245 117.586C51.1352 117.801 51.6065 117.908 52.1385 117.908C52.5772 117.908 52.9738 117.833 53.3285 117.684C53.6925 117.535 54.0098 117.311 54.2805 117.012L55.0225 117.88C54.6865 118.272 54.2665 118.571 53.7625 118.776C53.2678 118.981 52.7125 119.084 52.0965 119.084ZM60.4308 119.084C59.7121 119.084 59.0681 118.925 58.4988 118.608C57.9388 118.291 57.4954 117.847 57.1688 117.278C56.8421 116.709 56.6788 116.046 56.6788 115.29C56.6788 114.534 56.8421 113.876 57.1688 113.316C57.4954 112.747 57.9388 112.303 58.4988 111.986C59.0681 111.669 59.7121 111.51 60.4308 111.51C61.0561 111.51 61.6208 111.65 62.1248 111.93C62.6288 112.21 63.0301 112.63 63.3288 113.19C63.6368 113.75 63.7908 114.45 63.7908 115.29C63.7908 116.13 63.6414 116.83 63.3428 117.39C63.0534 117.95 62.6568 118.375 62.1528 118.664C61.6488 118.944 61.0748 119.084 60.4308 119.084ZM60.5428 117.908C61.0094 117.908 61.4294 117.801 61.8028 117.586C62.1854 117.371 62.4841 117.068 62.6988 116.676C62.9228 116.275 63.0348 115.813 63.0348 115.29C63.0348 114.758 62.9228 114.301 62.6988 113.918C62.4841 113.526 62.1854 113.223 61.8028 113.008C61.4294 112.793 61.0094 112.686 60.5428 112.686C60.0668 112.686 59.6421 112.793 59.2688 113.008C58.8954 113.223 58.5968 113.526 58.3728 113.918C58.1488 114.301 58.0368 114.758 58.0368 115.29C58.0368 115.813 58.1488 116.275 58.3728 116.676C58.5968 117.068 58.8954 117.371 59.2688 117.586C59.6421 117.801 60.0668 117.908 60.5428 117.908ZM63.0768 119L63.0768 116.998L63.1608 115.276L63.0208 113.554L63.0208 108.612L64.3648 108.612L64.3648 119L63.0768 119ZM67.2297 119.084C66.9684 119.084 66.7444 118.995 66.5577 118.818C66.3711 118.631 66.2777 118.398 66.2777 118.118C66.2777 117.838 66.3711 117.609 66.5577 117.432C66.7444 117.255 66.9684 117.166 67.2297 117.166C67.4817 117.166 67.6964 117.255 67.8737 117.432C68.0604 117.609 68.1537 117.838 68.1537 118.118C68.1537 118.398 68.0604 118.631 67.8737 118.818C67.6964 118.995 67.4817 119.084 67.2297 119.084ZM74.0354 119L74.0354 109.2L77.8574 109.2C78.716 109.2 79.4487 109.335 80.0554 109.606C80.662 109.877 81.1287 110.269 81.4554 110.782C81.782 111.295 81.9454 111.907 81.9454 112.616C81.9454 113.325 81.782 113.937 81.4554 114.45C81.1287 114.954 80.662 115.346 80.0554 115.626C79.4487 115.897 78.716 116.032 77.8574 116.032L74.8054 116.032L75.4354 115.374L75.4354 119L74.0354 119ZM75.4354 115.514L74.8054 114.814L77.8154 114.814C78.7114 114.814 79.388 114.623 79.8454 114.24C80.312 113.857 80.5454 113.316 80.5454 112.616C80.5454 111.916 80.312 111.375 79.8454 110.992C79.388 110.609 78.7114 110.418 77.8154 110.418L74.8054 110.418L75.4354 109.718L75.4354 115.514ZM83.9429 119L83.9429 108.612L85.2869 108.612L85.2869 119L83.9429 119ZM91.157 119.084C90.3637 119.084 89.6637 118.921 89.057 118.594C88.4597 118.267 87.993 117.819 87.657 117.25C87.3304 116.681 87.167 116.027 87.167 115.29C87.167 114.553 87.3257 113.899 87.643 113.33C87.9697 112.761 88.413 112.317 88.973 112C89.5424 111.673 90.1817 111.51 90.891 111.51C91.6097 111.51 92.2444 111.669 92.795 111.986C93.3457 112.303 93.775 112.751 94.083 113.33C94.4004 113.899 94.559 114.567 94.559 115.332C94.559 115.388 94.5544 115.453 94.545 115.528C94.545 115.603 94.5404 115.673 94.531 115.738L88.217 115.738L88.217 114.772L93.831 114.772L93.285 115.108C93.2944 114.632 93.1964 114.207 92.991 113.834C92.7857 113.461 92.501 113.171 92.137 112.966C91.7824 112.751 91.367 112.644 90.891 112.644C90.4244 112.644 90.009 112.751 89.645 112.966C89.281 113.171 88.9964 113.465 88.791 113.848C88.5857 114.221 88.483 114.651 88.483 115.136L88.483 115.36C88.483 115.855 88.595 116.298 88.819 116.69C89.0524 117.073 89.3744 117.371 89.785 117.586C90.1957 117.801 90.667 117.908 91.199 117.908C91.6377 117.908 92.0344 117.833 92.389 117.684C92.753 117.535 93.0704 117.311 93.341 117.012L94.083 117.88C93.747 118.272 93.327 118.571 92.823 118.776C92.3284 118.981 91.773 119.084 91.157 119.084ZM100.826 119L100.826 117.432L100.756 117.138L100.756 114.464C100.756 113.895 100.588 113.456 100.252 113.148C99.9256 112.831 99.4309 112.672 98.7682 112.672C98.3296 112.672 97.9002 112.747 97.4802 112.896C97.0602 113.036 96.7056 113.227 96.4162 113.47L95.8562 112.462C96.2389 112.154 96.6962 111.921 97.2282 111.762C97.7696 111.594 98.3342 111.51 98.9222 111.51C99.9396 111.51 100.724 111.757 101.274 112.252C101.825 112.747 102.1 113.503 102.1 114.52L102.1 119L100.826 119ZM98.3902 119.084C97.8396 119.084 97.3542 118.991 96.9342 118.804C96.5236 118.617 96.2062 118.361 95.9822 118.034C95.7582 117.698 95.6462 117.32 95.6462 116.9C95.6462 116.499 95.7396 116.135 95.9262 115.808C96.1222 115.481 96.4349 115.22 96.8642 115.024C97.3029 114.828 97.8909 114.73 98.6282 114.73L100.98 114.73L100.98 115.696L98.6842 115.696C98.0122 115.696 97.5596 115.808 97.3262 116.032C97.0929 116.256 96.9762 116.527 96.9762 116.844C96.9762 117.208 97.1209 117.502 97.4102 117.726C97.6996 117.941 98.1009 118.048 98.6142 118.048C99.1182 118.048 99.5569 117.936 99.9302 117.712C100.313 117.488 100.588 117.161 100.756 116.732L101.022 117.656C100.845 118.095 100.532 118.445 100.084 118.706C99.6362 118.958 99.0716 119.084 98.3902 119.084ZM106.715 119.084C106.099 119.084 105.511 119 104.951 118.832C104.401 118.664 103.967 118.459 103.649 118.216L104.209 117.152C104.527 117.367 104.919 117.549 105.385 117.698C105.852 117.847 106.328 117.922 106.813 117.922C107.439 117.922 107.887 117.833 108.157 117.656C108.437 117.479 108.577 117.231 108.577 116.914C108.577 116.681 108.493 116.499 108.325 116.368C108.157 116.237 107.933 116.139 107.653 116.074C107.383 116.009 107.079 115.953 106.743 115.906C106.407 115.85 106.071 115.785 105.735 115.71C105.399 115.626 105.091 115.514 104.811 115.374C104.531 115.225 104.307 115.024 104.139 114.772C103.971 114.511 103.887 114.165 103.887 113.736C103.887 113.288 104.013 112.896 104.265 112.56C104.517 112.224 104.872 111.967 105.329 111.79C105.796 111.603 106.347 111.51 106.981 111.51C107.467 111.51 107.957 111.571 108.451 111.692C108.955 111.804 109.366 111.967 109.683 112.182L109.109 113.246C108.773 113.022 108.423 112.868 108.059 112.784C107.695 112.7 107.331 112.658 106.967 112.658C106.379 112.658 105.941 112.756 105.651 112.952C105.362 113.139 105.217 113.381 105.217 113.68C105.217 113.932 105.301 114.128 105.469 114.268C105.647 114.399 105.871 114.501 106.141 114.576C106.421 114.651 106.729 114.716 107.065 114.772C107.401 114.819 107.737 114.884 108.073 114.968C108.409 115.043 108.713 115.15 108.983 115.29C109.263 115.43 109.487 115.626 109.655 115.878C109.833 116.13 109.921 116.466 109.921 116.886C109.921 117.334 109.791 117.721 109.529 118.048C109.268 118.375 108.899 118.631 108.423 118.818C107.947 118.995 107.378 119.084 106.715 119.084ZM114.905 119.084C114.112 119.084 113.412 118.921 112.805 118.594C112.208 118.267 111.741 117.819 111.405 117.25C111.078 116.681 110.915 116.027 110.915 115.29C110.915 114.553 111.074 113.899 111.391 113.33C111.718 112.761 112.161 112.317 112.721 112C113.29 111.673 113.93 111.51 114.639 111.51C115.358 111.51 115.992 111.669 116.543 111.986C117.094 112.303 117.523 112.751 117.831 113.33C118.148 113.899 118.307 114.567 118.307 115.332C118.307 115.388 118.302 115.453 118.293 115.528C118.293 115.603 118.288 115.673 118.279 115.738L111.965 115.738L111.965 114.772L117.579 114.772L117.033 115.108C117.042 114.632 116.944 114.207 116.739 113.834C116.534 113.461 116.249 113.171 115.885 112.966C115.53 112.751 115.115 112.644 114.639 112.644C114.172 112.644 113.757 112.751 113.393 112.966C113.029 113.171 112.744 113.465 112.539 113.848C112.334 114.221 112.231 114.651 112.231 115.136L112.231 115.36C112.231 115.855 112.343 116.298 112.567 116.69C112.8 117.073 113.122 117.371 113.533 117.586C113.944 117.801 114.415 117.908 114.947 117.908C115.386 117.908 115.782 117.833 116.137 117.684C116.501 117.535 116.818 117.311 117.089 117.012L117.831 117.88C117.495 118.272 117.075 118.571 116.571 118.776C116.076 118.981 115.521 119.084 114.905 119.084ZM126.061 119.084C125.445 119.084 124.857 119 124.297 118.832C123.746 118.664 123.312 118.459 122.995 118.216L123.555 117.152C123.872 117.367 124.264 117.549 124.731 117.698C125.198 117.847 125.674 117.922 126.159 117.922C126.784 117.922 127.232 117.833 127.503 117.656C127.783 117.479 127.923 117.231 127.923 116.914C127.923 116.681 127.839 116.499 127.671 116.368C127.503 116.237 127.279 116.139 126.999 116.074C126.728 116.009 126.425 115.953 126.089 115.906C125.753 115.85 125.417 115.785 125.081 115.71C124.745 115.626 124.437 115.514 124.157 115.374C123.877 115.225 123.653 115.024 123.485 114.772C123.317 114.511 123.233 114.165 123.233 113.736C123.233 113.288 123.359 112.896 123.611 112.56C123.863 112.224 124.218 111.967 124.675 111.79C125.142 111.603 125.692 111.51 126.327 111.51C126.812 111.51 127.302 111.571 127.797 111.692C128.301 111.804 128.712 111.967 129.029 112.182L128.455 113.246C128.119 113.022 127.769 112.868 127.405 112.784C127.041 112.7 126.677 112.658 126.313 112.658C125.725 112.658 125.286 112.756 124.997 112.952C124.708 113.139 124.563 113.381 124.563 113.68C124.563 113.932 124.647 114.128 124.815 114.268C124.992 114.399 125.216 114.501 125.487 114.576C125.767 114.651 126.075 114.716 126.411 114.772C126.747 114.819 127.083 114.884 127.419 114.968C127.755 115.043 128.058 115.15 128.329 115.29C128.609 115.43 128.833 115.626 129.001 115.878C129.178 116.13 129.267 116.466 129.267 116.886C129.267 117.334 129.136 117.721 128.875 118.048C128.614 118.375 128.245 118.631 127.769 118.818C127.293 118.995 126.724 119.084 126.061 119.084ZM134.251 119.084C133.457 119.084 132.757 118.921 132.151 118.594C131.553 118.267 131.087 117.819 130.751 117.25C130.424 116.681 130.261 116.027 130.261 115.29C130.261 114.553 130.419 113.899 130.737 113.33C131.063 112.761 131.507 112.317 132.067 112C132.636 111.673 133.275 111.51 133.985 111.51C134.703 111.51 135.338 111.669 135.889 111.986C136.439 112.303 136.869 112.751 137.177 113.33C137.494 113.899 137.653 114.567 137.653 115.332C137.653 115.388 137.648 115.453 137.639 115.528C137.639 115.603 137.634 115.673 137.625 115.738L131.311 115.738L131.311 114.772L136.925 114.772L136.379 115.108C136.388 114.632 136.29 114.207 136.085 113.834C135.879 113.461 135.595 113.171 135.231 112.966C134.876 112.751 134.461 112.644 133.985 112.644C133.518 112.644 133.103 112.751 132.739 112.966C132.375 113.171 132.09 113.465 131.885 113.848C131.679 114.221 131.577 114.651 131.577 115.136L131.577 115.36C131.577 115.855 131.689 116.298 131.913 116.69C132.146 117.073 132.468 117.371 132.879 117.586C133.289 117.801 133.761 117.908 134.293 117.908C134.731 117.908 135.128 117.833 135.483 117.684C135.847 117.535 136.164 117.311 136.435 117.012L137.177 117.88C136.841 118.272 136.421 118.571 135.917 118.776C135.422 118.981 134.867 119.084 134.251 119.084ZM139.519 119L139.519 108.612L140.863 108.612L140.863 119L139.519 119ZM146.733 119.084C145.94 119.084 145.24 118.921 144.633 118.594C144.036 118.267 143.569 117.819 143.233 117.25C142.907 116.681 142.743 116.027 142.743 115.29C142.743 114.553 142.902 113.899 143.219 113.33C143.546 112.761 143.989 112.317 144.549 112C145.119 111.673 145.758 111.51 146.467 111.51C147.186 111.51 147.821 111.669 148.371 111.986C148.922 112.303 149.351 112.751 149.659 113.33C149.977 113.899 150.135 114.567 150.135 115.332C150.135 115.388 150.131 115.453 150.121 115.528C150.121 115.603 150.117 115.673 150.107 115.738L143.793 115.738L143.793 114.772L149.407 114.772L148.861 115.108C148.871 114.632 148.773 114.207 148.567 113.834C148.362 113.461 148.077 113.171 147.713 112.966C147.359 112.751 146.943 112.644 146.467 112.644C146.001 112.644 145.585 112.751 145.221 112.966C144.857 113.171 144.573 113.465 144.367 113.848C144.162 114.221 144.059 114.651 144.059 115.136L144.059 115.36C144.059 115.855 144.171 116.298 144.395 116.69C144.629 117.073 144.951 117.371 145.361 117.586C145.772 117.801 146.243 117.908 146.775 117.908C147.214 117.908 147.611 117.833 147.965 117.684C148.329 117.535 148.647 117.311 148.917 117.012L149.659 117.88C149.323 118.272 148.903 118.571 148.399 118.776C147.905 118.981 147.349 119.084 146.733 119.084ZM155.235 119.084C154.479 119.084 153.803 118.921 153.205 118.594C152.617 118.267 152.155 117.819 151.819 117.25C151.483 116.681 151.315 116.027 151.315 115.29C151.315 114.553 151.483 113.899 151.819 113.33C152.155 112.761 152.617 112.317 153.205 112C153.803 111.673 154.479 111.51 155.235 111.51C155.907 111.51 156.505 111.645 157.027 111.916C157.559 112.177 157.97 112.569 158.259 113.092L157.237 113.75C156.995 113.386 156.696 113.12 156.341 112.952C155.996 112.775 155.623 112.686 155.221 112.686C154.736 112.686 154.302 112.793 153.919 113.008C153.537 113.223 153.233 113.526 153.009 113.918C152.785 114.301 152.673 114.758 152.673 115.29C152.673 115.822 152.785 116.284 153.009 116.676C153.233 117.068 153.537 117.371 153.919 117.586C154.302 117.801 154.736 117.908 155.221 117.908C155.623 117.908 155.996 117.824 156.341 117.656C156.696 117.479 156.995 117.208 157.237 116.844L158.259 117.488C157.97 118.001 157.559 118.398 157.027 118.678C156.505 118.949 155.907 119.084 155.235 119.084ZM162.643 119.084C161.897 119.084 161.318 118.883 160.907 118.482C160.497 118.081 160.291 117.507 160.291 116.76L160.291 109.956L161.635 109.956L161.635 116.704C161.635 117.105 161.733 117.413 161.929 117.628C162.135 117.843 162.424 117.95 162.797 117.95C163.217 117.95 163.567 117.833 163.847 117.6L164.267 118.566C164.062 118.743 163.815 118.874 163.525 118.958C163.245 119.042 162.951 119.084 162.643 119.084ZM159.031 112.686L159.031 111.58L163.763 111.58L163.763 112.686L159.031 112.686ZM10.3839 136L7.62593 128.58L8.89993 128.58L11.3499 135.3L10.7479 135.3L13.2959 128.58L14.4299 128.58L16.9219 135.3L16.3339 135.3L18.8399 128.58L20.0439 128.58L17.2719 136L15.9839 136L13.6459 129.868L14.0379 129.868L11.6719 136L10.3839 136ZM25.3697 128.51C25.9764 128.51 26.5084 128.627 26.9657 128.86C27.4324 129.093 27.7964 129.448 28.0577 129.924C28.3191 130.4 28.4497 131.002 28.4497 131.73L28.4497 136L27.1057 136L27.1057 131.884C27.1057 131.165 26.9284 130.624 26.5737 130.26C26.2284 129.896 25.7384 129.714 25.1037 129.714C24.6277 129.714 24.2124 129.807 23.8577 129.994C23.5031 130.181 23.2277 130.456 23.0317 130.82C22.8451 131.184 22.7517 131.637 22.7517 132.178L22.7517 136L21.4077 136L21.4077 125.612L22.7517 125.612L22.7517 130.582L22.4857 130.05C22.7284 129.565 23.1017 129.187 23.6057 128.916C24.1097 128.645 24.6977 128.51 25.3697 128.51ZM30.937 136L30.937 128.58L32.281 128.58L32.281 136L30.937 136ZM31.609 127.152C31.3477 127.152 31.1284 127.068 30.951 126.9C30.783 126.732 30.699 126.527 30.699 126.284C30.699 126.032 30.783 125.822 30.951 125.654C31.1284 125.486 31.3477 125.402 31.609 125.402C31.8704 125.402 32.085 125.486 32.253 125.654C32.4304 125.813 32.519 126.013 32.519 126.256C32.519 126.508 32.435 126.723 32.267 126.9C32.099 127.068 31.8797 127.152 31.609 127.152ZM38.0812 136.084C37.3252 136.084 36.6485 135.921 36.0512 135.594C35.4632 135.267 35.0012 134.819 34.6652 134.25C34.3292 133.681 34.1612 133.027 34.1612 132.29C34.1612 131.553 34.3292 130.899 34.6652 130.33C35.0012 129.761 35.4632 129.317 36.0512 129C36.6485 128.673 37.3252 128.51 38.0812 128.51C38.7532 128.51 39.3505 128.645 39.8732 128.916C40.4052 129.177 40.8158 129.569 41.1052 130.092L40.0832 130.75C39.8405 130.386 39.5418 130.12 39.1872 129.952C38.8418 129.775 38.4685 129.686 38.0672 129.686C37.5818 129.686 37.1478 129.793 36.7652 130.008C36.3825 130.223 36.0792 130.526 35.8552 130.918C35.6312 131.301 35.5192 131.758 35.5192 132.29C35.5192 132.822 35.6312 133.284 35.8552 133.676C36.0792 134.068 36.3825 134.371 36.7652 134.586C37.1478 134.801 37.5818 134.908 38.0672 134.908C38.4685 134.908 38.8418 134.824 39.1872 134.656C39.5418 134.479 39.8405 134.208 40.0832 133.844L41.1052 134.488C40.8158 135.001 40.4052 135.398 39.8732 135.678C39.3505 135.949 38.7532 136.084 38.0812 136.084ZM46.7115 128.51C47.3182 128.51 47.8502 128.627 48.3075 128.86C48.7742 129.093 49.1382 129.448 49.3995 129.924C49.6609 130.4 49.7915 131.002 49.7915 131.73L49.7915 136L48.4475 136L48.4475 131.884C48.4475 131.165 48.2702 130.624 47.9155 130.26C47.5702 129.896 47.0802 129.714 46.4455 129.714C45.9695 129.714 45.5542 129.807 45.1995 129.994C44.8449 130.181 44.5695 130.456 44.3735 130.82C44.1869 131.184 44.0935 131.637 44.0935 132.178L44.0935 136L42.7495 136L42.7495 125.612L44.0935 125.612L44.0935 130.582L43.8275 130.05C44.0702 129.565 44.4435 129.187 44.9475 128.916C45.4515 128.645 46.0395 128.51 46.7115 128.51ZM59.1046 136.084C58.3859 136.084 57.7419 135.925 57.1726 135.608C56.6126 135.291 56.1693 134.847 55.8426 134.278C55.5159 133.709 55.3526 133.046 55.3526 132.29C55.3526 131.534 55.5159 130.876 55.8426 130.316C56.1693 129.747 56.6126 129.303 57.1726 128.986C57.7419 128.669 58.3859 128.51 59.1046 128.51C59.7486 128.51 60.3226 128.65 60.8266 128.93C61.3306 129.21 61.7273 129.63 62.0166 130.19C62.3153 130.75 62.4646 131.45 62.4646 132.29C62.4646 133.13 62.3106 133.83 62.0026 134.39C61.7039 134.95 61.3026 135.375 60.7986 135.664C60.2946 135.944 59.7299 136.084 59.1046 136.084ZM59.2166 134.908C59.6833 134.908 60.1033 134.801 60.4766 134.586C60.8593 134.371 61.1579 134.068 61.3726 133.676C61.5966 133.275 61.7086 132.813 61.7086 132.29C61.7086 131.758 61.5966 131.301 61.3726 130.918C61.1579 130.526 60.8593 130.223 60.4766 130.008C60.1033 129.793 59.6833 129.686 59.2166 129.686C58.7406 129.686 58.3159 129.793 57.9426 130.008C57.5693 130.223 57.2706 130.526 57.0466 130.918C56.8226 131.301 56.7106 131.758 56.7106 132.29C56.7106 132.813 56.8226 133.275 57.0466 133.676C57.2706 134.068 57.5693 134.371 57.9426 134.586C58.3159 134.801 58.7406 134.908 59.2166 134.908ZM61.6946 138.716L61.6946 134.026L61.8346 132.304L61.7506 130.582L61.7506 128.58L63.0386 128.58L63.0386 138.716L61.6946 138.716ZM68.7036 136.084C68.0689 136.084 67.5089 135.967 67.0236 135.734C66.5476 135.501 66.1742 135.146 65.9036 134.67C65.6422 134.185 65.5116 133.578 65.5116 132.85L65.5116 128.58L66.8556 128.58L66.8556 132.696C66.8556 133.424 67.0282 133.97 67.3736 134.334C67.7282 134.698 68.2229 134.88 68.8576 134.88C69.3242 134.88 69.7302 134.787 70.0756 134.6C70.4209 134.404 70.6869 134.124 70.8736 133.76C71.0602 133.387 71.1536 132.939 71.1536 132.416L71.1536 128.58L72.4976 128.58L72.4976 136L71.2236 136L71.2236 133.998L71.4336 134.53C71.1909 135.025 70.8269 135.407 70.3416 135.678C69.8562 135.949 69.3102 136.084 68.7036 136.084ZM78.3602 136.084C77.5668 136.084 76.8668 135.921 76.2602 135.594C75.6628 135.267 75.1962 134.819 74.8602 134.25C74.5335 133.681 74.3702 133.027 74.3702 132.29C74.3702 131.553 74.5288 130.899 74.8462 130.33C75.1728 129.761 75.6162 129.317 76.1762 129C76.7455 128.673 77.3848 128.51 78.0942 128.51C78.8128 128.51 79.4475 128.669 79.9982 128.986C80.5488 129.303 80.9782 129.751 81.2862 130.33C81.6035 130.899 81.7622 131.567 81.7622 132.332C81.7622 132.388 81.7575 132.453 81.7482 132.528C81.7482 132.603 81.7435 132.673 81.7342 132.738L75.4202 132.738L75.4202 131.772L81.0342 131.772L80.4882 132.108C80.4975 131.632 80.3995 131.207 80.1942 130.834C79.9888 130.461 79.7042 130.171 79.3402 129.966C78.9855 129.751 78.5702 129.644 78.0942 129.644C77.6275 129.644 77.2122 129.751 76.8482 129.966C76.4842 130.171 76.1995 130.465 75.9942 130.848C75.7888 131.221 75.6862 131.651 75.6862 132.136L75.6862 132.36C75.6862 132.855 75.7982 133.298 76.0222 133.69C76.2555 134.073 76.5775 134.371 76.9882 134.586C77.3988 134.801 77.8702 134.908 78.4022 134.908C78.8408 134.908 79.2375 134.833 79.5922 134.684C79.9562 134.535 80.2735 134.311 80.5442 134.012L81.2862 134.88C80.9502 135.272 80.5302 135.571 80.0262 135.776C79.5315 135.981 78.9762 136.084 78.3602 136.084ZM85.7564 136.084C85.1404 136.084 84.5524 136 83.9924 135.832C83.4418 135.664 83.0078 135.459 82.6904 135.216L83.2504 134.152C83.5678 134.367 83.9598 134.549 84.4264 134.698C84.8931 134.847 85.3691 134.922 85.8544 134.922C86.4798 134.922 86.9278 134.833 87.1984 134.656C87.4784 134.479 87.6184 134.231 87.6184 133.914C87.6184 133.681 87.5344 133.499 87.3664 133.368C87.1984 133.237 86.9744 133.139 86.6944 133.074C86.4238 133.009 86.1204 132.953 85.7844 132.906C85.4484 132.85 85.1124 132.785 84.7764 132.71C84.4404 132.626 84.1324 132.514 83.8524 132.374C83.5724 132.225 83.3484 132.024 83.1804 131.772C83.0124 131.511 82.9284 131.165 82.9284 130.736C82.9284 130.288 83.0544 129.896 83.3064 129.56C83.5584 129.224 83.9131 128.967 84.3704 128.79C84.8371 128.603 85.3878 128.51 86.0224 128.51C86.5078 128.51 86.9978 128.571 87.4924 128.692C87.9964 128.804 88.4071 128.967 88.7244 129.182L88.1504 130.246C87.8144 130.022 87.4644 129.868 87.1004 129.784C86.7364 129.7 86.3724 129.658 86.0084 129.658C85.4204 129.658 84.9818 129.756 84.6924 129.952C84.4031 130.139 84.2584 130.381 84.2584 130.68C84.2584 130.932 84.3424 131.128 84.5104 131.268C84.6878 131.399 84.9118 131.501 85.1824 131.576C85.4624 131.651 85.7704 131.716 86.1064 131.772C86.4424 131.819 86.7784 131.884 87.1144 131.968C87.4504 132.043 87.7538 132.15 88.0244 132.29C88.3044 132.43 88.5284 132.626 88.6964 132.878C88.8738 133.13 88.9624 133.466 88.9624 133.886C88.9624 134.334 88.8318 134.721 88.5704 135.048C88.3091 135.375 87.9404 135.631 87.4644 135.818C86.9884 135.995 86.4191 136.084 85.7564 136.084ZM93.1901 136.084C92.4434 136.084 91.8648 135.883 91.4541 135.482C91.0434 135.081 90.8381 134.507 90.8381 133.76L90.8381 126.956L92.1821 126.956L92.1821 133.704C92.1821 134.105 92.2801 134.413 92.4761 134.628C92.6814 134.843 92.9708 134.95 93.3441 134.95C93.7641 134.95 94.1141 134.833 94.3941 134.6L94.8141 135.566C94.6088 135.743 94.3614 135.874 94.0721 135.958C93.7921 136.042 93.4981 136.084 93.1901 136.084ZM89.5781 129.686L89.5781 128.58L94.3101 128.58L94.3101 129.686L89.5781 129.686ZM96.439 136L96.439 128.58L97.783 128.58L97.783 136L96.439 136ZM97.111 127.152C96.8496 127.152 96.6303 127.068 96.453 126.9C96.285 126.732 96.201 126.527 96.201 126.284C96.201 126.032 96.285 125.822 96.453 125.654C96.6303 125.486 96.8496 125.402 97.111 125.402C97.3723 125.402 97.587 125.486 97.755 125.654C97.9323 125.813 98.021 126.013 98.021 126.256C98.021 126.508 97.937 126.723 97.769 126.9C97.601 127.068 97.3816 127.152 97.111 127.152ZM103.527 136.084C102.78 136.084 102.118 135.921 101.539 135.594C100.96 135.267 100.503 134.819 100.167 134.25C99.8311 133.671 99.6631 133.018 99.6631 132.29C99.6631 131.553 99.8311 130.899 100.167 130.33C100.503 129.761 100.96 129.317 101.539 129C102.118 128.673 102.78 128.51 103.527 128.51C104.264 128.51 104.922 128.673 105.501 129C106.089 129.317 106.546 129.761 106.873 130.33C107.209 130.89 107.377 131.543 107.377 132.29C107.377 133.027 107.209 133.681 106.873 134.25C106.546 134.819 106.089 135.267 105.501 135.594C104.922 135.921 104.264 136.084 103.527 136.084ZM103.527 134.908C104.003 134.908 104.428 134.801 104.801 134.586C105.184 134.371 105.482 134.068 105.697 133.676C105.912 133.275 106.019 132.813 106.019 132.29C106.019 131.758 105.912 131.301 105.697 130.918C105.482 130.526 105.184 130.223 104.801 130.008C104.428 129.793 104.003 129.686 103.527 129.686C103.051 129.686 102.626 129.793 102.253 130.008C101.88 130.223 101.581 130.526 101.357 130.918C101.133 131.301 101.021 131.758 101.021 132.29C101.021 132.813 101.133 133.275 101.357 133.676C101.581 134.068 101.88 134.371 102.253 134.586C102.626 134.801 103.051 134.908 103.527 134.908ZM113.198 128.51C113.805 128.51 114.337 128.627 114.794 128.86C115.261 129.093 115.625 129.448 115.886 129.924C116.147 130.4 116.278 131.002 116.278 131.73L116.278 136L114.934 136L114.934 131.884C114.934 131.165 114.757 130.624 114.402 130.26C114.057 129.896 113.567 129.714 112.932 129.714C112.456 129.714 112.041 129.807 111.686 129.994C111.331 130.181 111.056 130.456 110.86 130.82C110.673 131.184 110.58 131.637 110.58 132.178L110.58 136L109.236 136L109.236 128.58L110.524 128.58L110.524 130.582L110.314 130.05C110.557 129.565 110.93 129.187 111.434 128.916C111.938 128.645 112.526 128.51 113.198 128.51ZM120.893 136.084C120.277 136.084 119.689 136 119.129 135.832C118.578 135.664 118.144 135.459 117.827 135.216L118.387 134.152C118.704 134.367 119.096 134.549 119.563 134.698C120.03 134.847 120.506 134.922 120.991 134.922C121.616 134.922 122.064 134.833 122.335 134.656C122.615 134.479 122.755 134.231 122.755 133.914C122.755 133.681 122.671 133.499 122.503 133.368C122.335 133.237 122.111 133.139 121.831 133.074C121.56 133.009 121.257 132.953 120.921 132.906C120.585 132.85 120.249 132.785 119.913 132.71C119.577 132.626 119.269 132.514 118.989 132.374C118.709 132.225 118.485 132.024 118.317 131.772C118.149 131.511 118.065 131.165 118.065 130.736C118.065 130.288 118.191 129.896 118.443 129.56C118.695 129.224 119.05 128.967 119.507 128.79C119.974 128.603 120.524 128.51 121.159 128.51C121.644 128.51 122.134 128.571 122.629 128.692C123.133 128.804 123.544 128.967 123.861 129.182L123.287 130.246C122.951 130.022 122.601 129.868 122.237 129.784C121.873 129.7 121.509 129.658 121.145 129.658C120.557 129.658 120.118 129.756 119.829 129.952C119.54 130.139 119.395 130.381 119.395 130.68C119.395 130.932 119.479 131.128 119.647 131.268C119.824 131.399 120.048 131.501 120.319 131.576C120.599 131.651 120.907 131.716 121.243 131.772C121.579 131.819 121.915 131.884 122.251 131.968C122.587 132.043 122.89 132.15 123.161 132.29C123.441 132.43 123.665 132.626 123.833 132.878C124.01 133.13 124.099 133.466 124.099 133.886C124.099 134.334 123.968 134.721 123.707 135.048C123.446 135.375 123.077 135.631 122.601 135.818C122.125 135.995 121.556 136.084 120.893 136.084ZM129.735 136L129.735 127.922C129.735 127.194 129.945 126.615 130.365 126.186C130.794 125.747 131.401 125.528 132.185 125.528C132.474 125.528 132.749 125.565 133.011 125.64C133.281 125.705 133.51 125.813 133.697 125.962L133.291 126.984C133.151 126.872 132.992 126.788 132.815 126.732C132.637 126.667 132.451 126.634 132.255 126.634C131.863 126.634 131.564 126.746 131.359 126.97C131.153 127.185 131.051 127.507 131.051 127.936L131.051 128.93L131.079 129.546L131.079 136L129.735 136ZM128.475 129.686L128.475 128.58L133.207 128.58L133.207 129.686L128.475 129.686ZM134.474 136L134.474 128.58L135.762 128.58L135.762 130.596L135.636 130.092C135.841 129.579 136.187 129.187 136.672 128.916C137.157 128.645 137.755 128.51 138.464 128.51L138.464 129.812C138.408 129.803 138.352 129.798 138.296 129.798C138.249 129.798 138.203 129.798 138.156 129.798C137.437 129.798 136.868 130.013 136.448 130.442C136.028 130.871 135.818 131.492 135.818 132.304L135.818 136L134.474 136ZM143.23 136.084C142.484 136.084 141.821 135.921 141.242 135.594C140.664 135.267 140.206 134.819 139.87 134.25C139.534 133.671 139.366 133.018 139.366 132.29C139.366 131.553 139.534 130.899 139.87 130.33C140.206 129.761 140.664 129.317 141.242 129C141.821 128.673 142.484 128.51 143.23 128.51C143.968 128.51 144.626 128.673 145.204 129C145.792 129.317 146.25 129.761 146.576 130.33C146.912 130.89 147.08 131.543 147.08 132.29C147.08 133.027 146.912 133.681 146.576 134.25C146.25 134.819 145.792 135.267 145.204 135.594C144.626 135.921 143.968 136.084 143.23 136.084ZM143.23 134.908C143.706 134.908 144.131 134.801 144.504 134.586C144.887 134.371 145.186 134.068 145.4 133.676C145.615 133.275 145.722 132.813 145.722 132.29C145.722 131.758 145.615 131.301 145.4 130.918C145.186 130.526 144.887 130.223 144.504 130.008C144.131 129.793 143.706 129.686 143.23 129.686C142.754 129.686 142.33 129.793 141.956 130.008C141.583 130.223 141.284 130.526 141.06 130.918C140.836 131.301 140.724 131.758 140.724 132.29C140.724 132.813 140.836 133.275 141.06 133.676C141.284 134.068 141.583 134.371 141.956 134.586C142.33 134.801 142.754 134.908 143.23 134.908ZM158.221 128.51C158.818 128.51 159.346 128.627 159.803 128.86C160.26 129.093 160.615 129.448 160.867 129.924C161.128 130.4 161.259 131.002 161.259 131.73L161.259 136L159.915 136L159.915 131.884C159.915 131.165 159.747 130.624 159.411 130.26C159.075 129.896 158.604 129.714 157.997 129.714C157.549 129.714 157.157 129.807 156.821 129.994C156.485 130.181 156.224 130.456 156.037 130.82C155.86 131.184 155.771 131.637 155.771 132.178L155.771 136L154.427 136L154.427 131.884C154.427 131.165 154.259 130.624 153.923 130.26C153.596 129.896 153.125 129.714 152.509 129.714C152.07 129.714 151.683 129.807 151.347 129.994C151.011 130.181 150.75 130.456 150.563 130.82C150.376 131.184 150.283 131.637 150.283 132.178L150.283 136L148.939 136L148.939 128.58L150.227 128.58L150.227 130.554L150.017 130.05C150.25 129.565 150.61 129.187 151.095 128.916C151.58 128.645 152.145 128.51 152.789 128.51C153.498 128.51 154.11 128.687 154.623 129.042C155.136 129.387 155.472 129.915 155.631 130.624L155.085 130.4C155.309 129.831 155.701 129.373 156.261 129.028C156.821 128.683 157.474 128.51 158.221 128.51ZM8.6131 153.084C7.81976 153.084 7.11976 152.921 6.5131 152.594C5.91576 152.267 5.4491 151.819 5.1131 151.25C4.78643 150.681 4.6231 150.027 4.6231 149.29C4.6231 148.553 4.78176 147.899 5.0991 147.33C5.42576 146.761 5.8691 146.317 6.4291 146C6.99843 145.673 7.63776 145.51 8.3471 145.51C9.06576 145.51 9.70043 145.669 10.2511 145.986C10.8018 146.303 11.2311 146.751 11.5391 147.33C11.8564 147.899 12.0151 148.567 12.0151 149.332C12.0151 149.388 12.0104 149.453 12.0011 149.528C12.0011 149.603 11.9964 149.673 11.9871 149.738L5.6731 149.738L5.6731 148.772L11.2871 148.772L10.7411 149.108C10.7504 148.632 10.6524 148.207 10.4471 147.834C10.2418 147.461 9.9571 147.171 9.5931 146.966C9.23843 146.751 8.8231 146.644 8.3471 146.644C7.88043 146.644 7.4651 146.751 7.1011 146.966C6.7371 147.171 6.45243 147.465 6.2471 147.848C6.04176 148.221 5.9391 148.651 5.9391 149.136L5.9391 149.36C5.9391 149.855 6.0511 150.298 6.2751 150.69C6.50843 151.073 6.83043 151.371 7.2411 151.586C7.65176 151.801 8.1231 151.908 8.6551 151.908C9.09376 151.908 9.49043 151.833 9.8451 151.684C10.2091 151.535 10.5264 151.311 10.7971 151.012L11.5391 151.88C11.2031 152.272 10.7831 152.571 10.2791 152.776C9.78443 152.981 9.2291 153.084 8.6131 153.084ZM18.2823 153L18.2823 151.432L18.2123 151.138L18.2123 148.464C18.2123 147.895 18.0443 147.456 17.7083 147.148C17.3816 146.831 16.8869 146.672 16.2243 146.672C15.7856 146.672 15.3563 146.747 14.9363 146.896C14.5163 147.036 14.1616 147.227 13.8723 147.47L13.3123 146.462C13.6949 146.154 14.1523 145.921 14.6843 145.762C15.2256 145.594 15.7903 145.51 16.3783 145.51C17.3956 145.51 18.1796 145.757 18.7303 146.252C19.2809 146.747 19.5563 147.503 19.5563 148.52L19.5563 153L18.2823 153ZM15.8463 153.084C15.2956 153.084 14.8103 152.991 14.3903 152.804C13.9796 152.617 13.6623 152.361 13.4383 152.034C13.2143 151.698 13.1023 151.32 13.1023 150.9C13.1023 150.499 13.1956 150.135 13.3823 149.808C13.5783 149.481 13.8909 149.22 14.3203 149.024C14.7589 148.828 15.3469 148.73 16.0843 148.73L18.4363 148.73L18.4363 149.696L16.1403 149.696C15.4683 149.696 15.0156 149.808 14.7823 150.032C14.5489 150.256 14.4323 150.527 14.4323 150.844C14.4323 151.208 14.5769 151.502 14.8663 151.726C15.1556 151.941 15.5569 152.048 16.0703 152.048C16.5743 152.048 17.0129 151.936 17.3863 151.712C17.7689 151.488 18.0443 151.161 18.2123 150.732L18.4783 151.656C18.3009 152.095 17.9883 152.445 17.5403 152.706C17.0923 152.958 16.5276 153.084 15.8463 153.084ZM25.2775 153.084C24.5215 153.084 23.8448 152.921 23.2475 152.594C22.6595 152.267 22.1975 151.819 21.8615 151.25C21.5255 150.681 21.3575 150.027 21.3575 149.29C21.3575 148.553 21.5255 147.899 21.8615 147.33C22.1975 146.761 22.6595 146.317 23.2475 146C23.8448 145.673 24.5215 145.51 25.2775 145.51C25.9495 145.51 26.5468 145.645 27.0695 145.916C27.6015 146.177 28.0121 146.569 28.3015 147.092L27.2795 147.75C27.0368 147.386 26.7381 147.12 26.3835 146.952C26.0381 146.775 25.6648 146.686 25.2635 146.686C24.7781 146.686 24.3441 146.793 23.9615 147.008C23.5788 147.223 23.2755 147.526 23.0515 147.918C22.8275 148.301 22.7155 148.758 22.7155 149.29C22.7155 149.822 22.8275 150.284 23.0515 150.676C23.2755 151.068 23.5788 151.371 23.9615 151.586C24.3441 151.801 24.7781 151.908 25.2635 151.908C25.6648 151.908 26.0381 151.824 26.3835 151.656C26.7381 151.479 27.0368 151.208 27.2795 150.844L28.3015 151.488C28.0121 152.001 27.6015 152.398 27.0695 152.678C26.5468 152.949 25.9495 153.084 25.2775 153.084ZM33.9078 145.51C34.5145 145.51 35.0465 145.627 35.5038 145.86C35.9705 146.093 36.3345 146.448 36.5958 146.924C36.8571 147.4 36.9878 148.002 36.9878 148.73L36.9878 153L35.6438 153L35.6438 148.884C35.6438 148.165 35.4665 147.624 35.1118 147.26C34.7665 146.896 34.2765 146.714 33.6418 146.714C33.1658 146.714 32.7505 146.807 32.3958 146.994C32.0411 147.181 31.7658 147.456 31.5698 147.82C31.3831 148.184 31.2898 148.637 31.2898 149.178L31.2898 153L29.9458 153L29.9458 142.612L31.2898 142.612L31.2898 147.582L31.0238 147.05C31.2665 146.565 31.6398 146.187 32.1438 145.916C32.6478 145.645 33.2358 145.51 33.9078 145.51ZM45.3629 153.084C44.7469 153.084 44.1589 153 43.5989 152.832C43.0482 152.664 42.6142 152.459 42.2969 152.216L42.8569 151.152C43.1742 151.367 43.5662 151.549 44.0329 151.698C44.4995 151.847 44.9755 151.922 45.4609 151.922C46.0862 151.922 46.5342 151.833 46.8049 151.656C47.0849 151.479 47.2249 151.231 47.2249 150.914C47.2249 150.681 47.1409 150.499 46.9729 150.368C46.8049 150.237 46.5809 150.139 46.3009 150.074C46.0302 150.009 45.7269 149.953 45.3909 149.906C45.0549 149.85 44.7189 149.785 44.3829 149.71C44.0469 149.626 43.7389 149.514 43.4589 149.374C43.1789 149.225 42.9549 149.024 42.7869 148.772C42.6189 148.511 42.5349 148.165 42.5349 147.736C42.5349 147.288 42.6609 146.896 42.9129 146.56C43.1649 146.224 43.5195 145.967 43.9769 145.79C44.4435 145.603 44.9942 145.51 45.6289 145.51C46.1142 145.51 46.6042 145.571 47.0989 145.692C47.6029 145.804 48.0135 145.967 48.3309 146.182L47.7569 147.246C47.4209 147.022 47.0709 146.868 46.7069 146.784C46.3429 146.7 45.9789 146.658 45.6149 146.658C45.0269 146.658 44.5882 146.756 44.2989 146.952C44.0095 147.139 43.8649 147.381 43.8649 147.68C43.8649 147.932 43.9489 148.128 44.1169 148.268C44.2942 148.399 44.5182 148.501 44.7889 148.576C45.0689 148.651 45.3769 148.716 45.7129 148.772C46.0489 148.819 46.3849 148.884 46.7209 148.968C47.0569 149.043 47.3602 149.15 47.6309 149.29C47.9109 149.43 48.1349 149.626 48.3029 149.878C48.4802 150.13 48.5689 150.466 48.5689 150.886C48.5689 151.334 48.4382 151.721 48.1769 152.048C47.9155 152.375 47.5469 152.631 47.0709 152.818C46.5949 152.995 46.0255 153.084 45.3629 153.084ZM53.3705 153.084C52.7359 153.084 52.1759 152.967 51.6905 152.734C51.2145 152.501 50.8412 152.146 50.5705 151.67C50.3092 151.185 50.1785 150.578 50.1785 149.85L50.1785 145.58L51.5225 145.58L51.5225 149.696C51.5225 150.424 51.6952 150.97 52.0405 151.334C52.3952 151.698 52.8899 151.88 53.5245 151.88C53.9912 151.88 54.3972 151.787 54.7425 151.6C55.0879 151.404 55.3539 151.124 55.5405 150.76C55.7272 150.387 55.8205 149.939 55.8205 149.416L55.8205 145.58L57.1645 145.58L57.1645 153L55.8905 153L55.8905 150.998L56.1005 151.53C55.8579 152.025 55.4939 152.407 55.0085 152.678C54.5232 152.949 53.9772 153.084 53.3705 153.084ZM59.7232 153L59.7232 145.58L61.0112 145.58L61.0112 147.596L60.8852 147.092C61.0905 146.579 61.4358 146.187 61.9212 145.916C62.4065 145.645 63.0038 145.51 63.7132 145.51L63.7132 146.812C63.6572 146.803 63.6012 146.798 63.5452 146.798C63.4985 146.798 63.4518 146.798 63.4052 146.798C62.6865 146.798 62.1172 147.013 61.6972 147.442C61.2772 147.871 61.0672 148.492 61.0672 149.304L61.0672 153L59.7232 153ZM67.6164 153L64.3684 145.58L65.7684 145.58L68.6524 152.3L67.9804 152.3L70.9204 145.58L72.2364 145.58L68.9884 153L67.6164 153ZM76.5897 153.084C75.7963 153.084 75.0963 152.921 74.4897 152.594C73.8923 152.267 73.4257 151.819 73.0897 151.25C72.763 150.681 72.5997 150.027 72.5997 149.29C72.5997 148.553 72.7583 147.899 73.0757 147.33C73.4023 146.761 73.8457 146.317 74.4057 146C74.975 145.673 75.6143 145.51 76.3237 145.51C77.0423 145.51 77.677 145.669 78.2277 145.986C78.7783 146.303 79.2077 146.751 79.5157 147.33C79.833 147.899 79.9917 148.567 79.9917 149.332C79.9917 149.388 79.987 149.453 79.9777 149.528C79.9777 149.603 79.973 149.673 79.9637 149.738L73.6497 149.738L73.6497 148.772L79.2637 148.772L78.7177 149.108C78.727 148.632 78.629 148.207 78.4237 147.834C78.2183 147.461 77.9337 147.171 77.5697 146.966C77.215 146.751 76.7997 146.644 76.3237 146.644C75.857 146.644 75.4417 146.751 75.0777 146.966C74.7137 147.171 74.429 147.465 74.2237 147.848C74.0183 148.221 73.9157 148.651 73.9157 149.136L73.9157 149.36C73.9157 149.855 74.0277 150.298 74.2517 150.69C74.485 151.073 74.807 151.371 75.2177 151.586C75.6283 151.801 76.0997 151.908 76.6317 151.908C77.0703 151.908 77.467 151.833 77.8217 151.684C78.1857 151.535 78.503 151.311 78.7737 151.012L79.5157 151.88C79.1797 152.272 78.7597 152.571 78.2557 152.776C77.761 152.981 77.2057 153.084 76.5897 153.084ZM82.0432 155.8C81.6885 155.8 81.3432 155.739 81.0072 155.618C80.6712 155.506 80.3819 155.338 80.1392 155.114L80.7132 154.106C80.8999 154.283 81.1052 154.419 81.3292 154.512C81.5532 154.605 81.7912 154.652 82.0432 154.652C82.3699 154.652 82.6405 154.568 82.8552 154.4C83.0699 154.232 83.2705 153.933 83.4572 153.504L83.9192 152.482L84.0592 152.314L86.9712 145.58L88.2872 145.58L84.6892 153.742C84.4745 154.265 84.2319 154.675 83.9612 154.974C83.6999 155.273 83.4105 155.483 83.0932 155.604C82.7759 155.735 82.4259 155.8 82.0432 155.8ZM83.8072 153.238L80.4192 145.58L81.8192 145.58L84.7032 152.188L83.8072 153.238ZM93.6233 155.8C93.2686 155.8 92.9233 155.739 92.5873 155.618C92.2513 155.506 91.9619 155.338 91.7193 155.114L92.2933 154.106C92.4799 154.283 92.6853 154.419 92.9093 154.512C93.1333 154.605 93.3713 154.652 93.6233 154.652C93.9499 154.652 94.2206 154.568 94.4353 154.4C94.6499 154.232 94.8506 153.933 95.0373 153.504L95.4993 152.482L95.6393 152.314L98.5513 145.58L99.8673 145.58L96.2693 153.742C96.0546 154.265 95.8119 154.675 95.5413 154.974C95.2799 155.273 94.9906 155.483 94.6733 155.604C94.3559 155.735 94.0059 155.8 93.6233 155.8ZM95.3873 153.238L91.9993 145.58L93.3993 145.58L96.2833 152.188L95.3873 153.238ZM104.095 153.084C103.348 153.084 102.685 152.921 102.107 152.594C101.528 152.267 101.071 151.819 100.735 151.25C100.399 150.671 100.231 150.018 100.231 149.29C100.231 148.553 100.399 147.899 100.735 147.33C101.071 146.761 101.528 146.317 102.107 146C102.685 145.673 103.348 145.51 104.095 145.51C104.832 145.51 105.49 145.673 106.069 146C106.657 146.317 107.114 146.761 107.441 147.33C107.777 147.89 107.945 148.543 107.945 149.29C107.945 150.027 107.777 150.681 107.441 151.25C107.114 151.819 106.657 152.267 106.069 152.594C105.49 152.921 104.832 153.084 104.095 153.084ZM104.095 151.908C104.571 151.908 104.995 151.801 105.369 151.586C105.751 151.371 106.05 151.068 106.265 150.676C106.479 150.275 106.587 149.813 106.587 149.29C106.587 148.758 106.479 148.301 106.265 147.918C106.05 147.526 105.751 147.223 105.369 147.008C104.995 146.793 104.571 146.686 104.095 146.686C103.619 146.686 103.194 146.793 102.821 147.008C102.447 147.223 102.149 147.526 101.925 147.918C101.701 148.301 101.589 148.758 101.589 149.29C101.589 149.813 101.701 150.275 101.925 150.676C102.149 151.068 102.447 151.371 102.821 151.586C103.194 151.801 103.619 151.908 104.095 151.908ZM112.925 153.084C112.291 153.084 111.731 152.967 111.245 152.734C110.769 152.501 110.396 152.146 110.125 151.67C109.864 151.185 109.733 150.578 109.733 149.85L109.733 145.58L111.077 145.58L111.077 149.696C111.077 150.424 111.25 150.97 111.595 151.334C111.95 151.698 112.445 151.88 113.079 151.88C113.546 151.88 113.952 151.787 114.297 151.6C114.643 151.404 114.909 151.124 115.095 150.76C115.282 150.387 115.375 149.939 115.375 149.416L115.375 145.58L116.719 145.58L116.719 153L115.445 153L115.445 150.998L115.655 151.53C115.413 152.025 115.049 152.407 114.563 152.678C114.078 152.949 113.532 153.084 112.925 153.084ZM124.606 153L121.848 145.58L123.122 145.58L125.572 152.3L124.97 152.3L127.518 145.58L128.652 145.58L131.144 152.3L130.556 152.3L133.062 145.58L134.266 145.58L131.494 153L130.206 153L127.868 146.868L128.26 146.868L125.894 153L124.606 153ZM138.602 153.084C137.856 153.084 137.193 152.921 136.614 152.594C136.036 152.267 135.578 151.819 135.242 151.25C134.906 150.671 134.738 150.018 134.738 149.29C134.738 148.553 134.906 147.899 135.242 147.33C135.578 146.761 136.036 146.317 136.614 146C137.193 145.673 137.856 145.51 138.602 145.51C139.34 145.51 139.998 145.673 140.576 146C141.164 146.317 141.622 146.761 141.948 147.33C142.284 147.89 142.452 148.543 142.452 149.29C142.452 150.027 142.284 150.681 141.948 151.25C141.622 151.819 141.164 152.267 140.576 152.594C139.998 152.921 139.34 153.084 138.602 153.084ZM138.602 151.908C139.078 151.908 139.503 151.801 139.876 151.586C140.259 151.371 140.558 151.068 140.772 150.676C140.987 150.275 141.094 149.813 141.094 149.29C141.094 148.758 140.987 148.301 140.772 147.918C140.558 147.526 140.259 147.223 139.876 147.008C139.503 146.793 139.078 146.686 138.602 146.686C138.126 146.686 137.702 146.793 137.328 147.008C136.955 147.223 136.656 147.526 136.432 147.918C136.208 148.301 136.096 148.758 136.096 149.29C136.096 149.813 136.208 150.275 136.432 150.676C136.656 151.068 136.955 151.371 137.328 151.586C137.702 151.801 138.126 151.908 138.602 151.908ZM147.433 153.084C146.798 153.084 146.238 152.967 145.753 152.734C145.277 152.501 144.904 152.146 144.633 151.67C144.372 151.185 144.241 150.578 144.241 149.85L144.241 145.58L145.585 145.58L145.585 149.696C145.585 150.424 145.758 150.97 146.103 151.334C146.458 151.698 146.952 151.88 147.587 151.88C148.054 151.88 148.46 151.787 148.805 151.6C149.15 151.404 149.416 151.124 149.603 150.76C149.79 150.387 149.883 149.939 149.883 149.416L149.883 145.58L151.227 145.58L151.227 153L149.953 153L149.953 150.998L150.163 151.53C149.92 152.025 149.556 152.407 149.071 152.678C148.586 152.949 148.04 153.084 147.433 153.084ZM153.786 153L153.786 142.612L155.13 142.612L155.13 153L153.786 153ZM160.762 153.084C160.043 153.084 159.399 152.925 158.83 152.608C158.27 152.291 157.826 151.847 157.5 151.278C157.173 150.709 157.01 150.046 157.01 149.29C157.01 148.534 157.173 147.876 157.5 147.316C157.826 146.747 158.27 146.303 158.83 145.986C159.399 145.669 160.043 145.51 160.762 145.51C161.387 145.51 161.952 145.65 162.456 145.93C162.96 146.21 163.361 146.63 163.66 147.19C163.968 147.75 164.122 148.45 164.122 149.29C164.122 150.13 163.972 150.83 163.674 151.39C163.384 151.95 162.988 152.375 162.484 152.664C161.98 152.944 161.406 153.084 160.762 153.084ZM160.874 151.908C161.34 151.908 161.76 151.801 162.134 151.586C162.516 151.371 162.815 151.068 163.03 150.676C163.254 150.275 163.366 149.813 163.366 149.29C163.366 148.758 163.254 148.301 163.03 147.918C162.815 147.526 162.516 147.223 162.134 147.008C161.76 146.793 161.34 146.686 160.874 146.686C160.398 146.686 159.973 146.793 159.6 147.008C159.226 147.223 158.928 147.526 158.704 147.918C158.48 148.301 158.368 148.758 158.368 149.29C158.368 149.813 158.48 150.275 158.704 150.676C158.928 151.068 159.226 151.371 159.6 151.586C159.973 151.801 160.398 151.908 160.874 151.908ZM163.408 153L163.408 150.998L163.492 149.276L163.352 147.554L163.352 142.612L164.696 142.612L164.696 153L163.408 153ZM16.1509 170L16.1509 159.612L17.4949 159.612L17.4949 170L16.1509 170ZM20.061 170L20.061 162.58L21.405 162.58L21.405 170L20.061 170ZM20.733 161.152C20.4717 161.152 20.2524 161.068 20.075 160.9C19.907 160.732 19.823 160.527 19.823 160.284C19.823 160.032 19.907 159.822 20.075 159.654C20.2524 159.486 20.4717 159.402 20.733 159.402C20.9944 159.402 21.209 159.486 21.377 159.654C21.5544 159.813 21.643 160.013 21.643 160.256C21.643 160.508 21.559 160.723 21.391 160.9C21.223 161.068 21.0037 161.152 20.733 161.152ZM25.0632 168.208L25.0912 166.486L29.3612 162.58L30.9852 162.58L27.7092 165.8L26.9812 166.416L25.0632 168.208ZM23.9712 170L23.9712 159.612L25.3152 159.612L25.3152 170L23.9712 170ZM29.6412 170L26.7292 166.388L27.5972 165.31L31.2932 170L29.6412 170ZM35.6014 170.084C34.808 170.084 34.108 169.921 33.5014 169.594C32.904 169.267 32.4374 168.819 32.1014 168.25C31.7747 167.681 31.6114 167.027 31.6114 166.29C31.6114 165.553 31.77 164.899 32.0874 164.33C32.414 163.761 32.8574 163.317 33.4174 163C33.9867 162.673 34.626 162.51 35.3354 162.51C36.054 162.51 36.6887 162.669 37.2394 162.986C37.79 163.303 38.2194 163.751 38.5274 164.33C38.8447 164.899 39.0034 165.567 39.0034 166.332C39.0034 166.388 38.9987 166.453 38.9894 166.528C38.9894 166.603 38.9847 166.673 38.9754 166.738L32.6614 166.738L32.6614 165.772L38.2754 165.772L37.7294 166.108C37.7387 165.632 37.6407 165.207 37.4354 164.834C37.23 164.461 36.9454 164.171 36.5814 163.966C36.2267 163.751 35.8114 163.644 35.3354 163.644C34.8687 163.644 34.4534 163.751 34.0894 163.966C33.7254 164.171 33.4407 164.465 33.2354 164.848C33.03 165.221 32.9274 165.651 32.9274 166.136L32.9274 166.36C32.9274 166.855 33.0394 167.298 33.2634 167.69C33.4967 168.073 33.8187 168.371 34.2294 168.586C34.64 168.801 35.1114 168.908 35.6434 168.908C36.082 168.908 36.4787 168.833 36.8334 168.684C37.1974 168.535 37.5147 168.311 37.7854 168.012L38.5274 168.88C38.1914 169.272 37.7714 169.571 37.2674 169.776C36.7727 169.981 36.2174 170.084 35.6014 170.084ZM47.1774 170.084C46.4307 170.084 45.8521 169.883 45.4414 169.482C45.0307 169.081 44.8254 168.507 44.8254 167.76L44.8254 160.956L46.1694 160.956L46.1694 167.704C46.1694 168.105 46.2674 168.413 46.4634 168.628C46.6687 168.843 46.9581 168.95 47.3314 168.95C47.7514 168.95 48.1014 168.833 48.3814 168.6L48.8014 169.566C48.5961 169.743 48.3487 169.874 48.0594 169.958C47.7794 170.042 47.4854 170.084 47.1774 170.084ZM43.5654 163.686L43.5654 162.58L48.2974 162.58L48.2974 163.686L43.5654 163.686ZM53.3582 170.084C52.6115 170.084 51.9489 169.921 51.3702 169.594C50.7915 169.267 50.3342 168.819 49.9982 168.25C49.6622 167.671 49.4942 167.018 49.4942 166.29C49.4942 165.553 49.6622 164.899 49.9982 164.33C50.3342 163.761 50.7915 163.317 51.3702 163C51.9489 162.673 52.6115 162.51 53.3582 162.51C54.0955 162.51 54.7535 162.673 55.3322 163C55.9202 163.317 56.3775 163.761 56.7042 164.33C57.0402 164.89 57.2082 165.543 57.2082 166.29C57.2082 167.027 57.0402 167.681 56.7042 168.25C56.3775 168.819 55.9202 169.267 55.3322 169.594C54.7535 169.921 54.0955 170.084 53.3582 170.084ZM53.3582 168.908C53.8342 168.908 54.2589 168.801 54.6322 168.586C55.0149 168.371 55.3135 168.068 55.5282 167.676C55.7429 167.275 55.8502 166.813 55.8502 166.29C55.8502 165.758 55.7429 165.301 55.5282 164.918C55.3135 164.526 55.0149 164.223 54.6322 164.008C54.2589 163.793 53.8342 163.686 53.3582 163.686C52.8822 163.686 52.4575 163.793 52.0842 164.008C51.7109 164.223 51.4122 164.526 51.1882 164.918C50.9642 165.301 50.8522 165.758 50.8522 166.29C50.8522 166.813 50.9642 167.275 51.1882 167.676C51.4122 168.068 51.7109 168.371 52.0842 168.586C52.4575 168.801 52.8822 168.908 53.3582 168.908ZM66.7607 170.084C66.1447 170.084 65.58 169.944 65.0667 169.664C64.5627 169.375 64.1567 168.95 63.8487 168.39C63.55 167.83 63.4007 167.13 63.4007 166.29C63.4007 165.45 63.5453 164.75 63.8347 164.19C64.1333 163.63 64.5347 163.21 65.0387 162.93C65.552 162.65 66.126 162.51 66.7607 162.51C67.4887 162.51 68.1327 162.669 68.6927 162.986C69.2527 163.303 69.696 163.747 70.0227 164.316C70.3493 164.876 70.5127 165.534 70.5127 166.29C70.5127 167.046 70.3493 167.709 70.0227 168.278C69.696 168.847 69.2527 169.291 68.6927 169.608C68.1327 169.925 67.4887 170.084 66.7607 170.084ZM62.8267 172.716L62.8267 162.58L64.1147 162.58L64.1147 164.582L64.0307 166.304L64.1707 168.026L64.1707 172.716L62.8267 172.716ZM66.6487 168.908C67.1247 168.908 67.5493 168.801 67.9227 168.586C68.3053 168.371 68.604 168.068 68.8187 167.676C69.0427 167.275 69.1547 166.813 69.1547 166.29C69.1547 165.758 69.0427 165.301 68.8187 164.918C68.604 164.526 68.3053 164.223 67.9227 164.008C67.5493 163.793 67.1247 163.686 66.6487 163.686C66.182 163.686 65.7573 163.793 65.3747 164.008C65.0013 164.223 64.7027 164.526 64.4787 164.918C64.264 165.301 64.1567 165.758 64.1567 166.29C64.1567 166.813 64.264 167.275 64.4787 167.676C64.7027 168.068 65.0013 168.371 65.3747 168.586C65.7573 168.801 66.182 168.908 66.6487 168.908ZM76.9073 170L76.9073 168.432L76.8373 168.138L76.8373 165.464C76.8373 164.895 76.6693 164.456 76.3333 164.148C76.0066 163.831 75.5119 163.672 74.8493 163.672C74.4106 163.672 73.9813 163.747 73.5613 163.896C73.1413 164.036 72.7866 164.227 72.4973 164.47L71.9373 163.462C72.3199 163.154 72.7773 162.921 73.3093 162.762C73.8506 162.594 74.4153 162.51 75.0033 162.51C76.0206 162.51 76.8046 162.757 77.3553 163.252C77.9059 163.747 78.1813 164.503 78.1813 165.52L78.1813 170L76.9073 170ZM74.4713 170.084C73.9206 170.084 73.4353 169.991 73.0153 169.804C72.6046 169.617 72.2873 169.361 72.0633 169.034C71.8393 168.698 71.7273 168.32 71.7273 167.9C71.7273 167.499 71.8206 167.135 72.0073 166.808C72.2033 166.481 72.5159 166.22 72.9453 166.024C73.3839 165.828 73.9719 165.73 74.7093 165.73L77.0613 165.73L77.0613 166.696L74.7653 166.696C74.0933 166.696 73.6406 166.808 73.4073 167.032C73.1739 167.256 73.0573 167.527 73.0573 167.844C73.0573 168.208 73.2019 168.502 73.4913 168.726C73.7806 168.941 74.1819 169.048 74.6953 169.048C75.1993 169.048 75.6379 168.936 76.0113 168.712C76.3939 168.488 76.6693 168.161 76.8373 167.732L77.1033 168.656C76.9259 169.095 76.6133 169.445 76.1653 169.706C75.7173 169.958 75.1526 170.084 74.4713 170.084ZM80.6685 170L80.6685 162.58L82.0125 162.58L82.0125 170L80.6685 170ZM81.3405 161.152C81.0791 161.152 80.8598 161.068 80.6825 160.9C80.5145 160.732 80.4305 160.527 80.4305 160.284C80.4305 160.032 80.5145 159.822 80.6825 159.654C80.8598 159.486 81.0791 159.402 81.3405 159.402C81.6018 159.402 81.8165 159.486 81.9845 159.654C82.1618 159.813 82.2505 160.013 82.2505 160.256C82.2505 160.508 82.1665 160.723 81.9985 160.9C81.8305 161.068 81.6111 161.152 81.3405 161.152ZM84.5786 170L84.5786 162.58L85.8666 162.58L85.8666 164.596L85.7406 164.092C85.946 163.579 86.2913 163.187 86.7766 162.916C87.262 162.645 87.8593 162.51 88.5686 162.51L88.5686 163.812C88.5126 163.803 88.4566 163.798 88.4006 163.798C88.354 163.798 88.3073 163.798 88.2606 163.798C87.542 163.798 86.9726 164.013 86.5526 164.442C86.1326 164.871 85.9226 165.492 85.9226 166.304L85.9226 170L84.5786 170ZM96.6286 170.084C95.8819 170.084 95.3032 169.883 94.8926 169.482C94.4819 169.081 94.2766 168.507 94.2766 167.76L94.2766 160.956L95.6206 160.956L95.6206 167.704C95.6206 168.105 95.7186 168.413 95.9146 168.628C96.1199 168.843 96.4092 168.95 96.7826 168.95C97.2026 168.95 97.5526 168.833 97.8326 168.6L98.2526 169.566C98.0472 169.743 97.7999 169.874 97.5106 169.958C97.2306 170.042 96.9366 170.084 96.6286 170.084ZM93.0166 163.686L93.0166 162.58L97.7486 162.58L97.7486 163.686L93.0166 163.686ZM102.809 170.084C102.063 170.084 101.4 169.921 100.821 169.594C100.243 169.267 99.7854 168.819 99.4494 168.25C99.1134 167.671 98.9454 167.018 98.9454 166.29C98.9454 165.553 99.1134 164.899 99.4494 164.33C99.7854 163.761 100.243 163.317 100.821 163C101.4 162.673 102.063 162.51 102.809 162.51C103.547 162.51 104.205 162.673 104.783 163C105.371 163.317 105.829 163.761 106.155 164.33C106.491 164.89 106.659 165.543 106.659 166.29C106.659 167.027 106.491 167.681 106.155 168.25C105.829 168.819 105.371 169.267 104.783 169.594C104.205 169.921 103.547 170.084 102.809 170.084ZM102.809 168.908C103.285 168.908 103.71 168.801 104.083 168.586C104.466 168.371 104.765 168.068 104.979 167.676C105.194 167.275 105.301 166.813 105.301 166.29C105.301 165.758 105.194 165.301 104.979 164.918C104.765 164.526 104.466 164.223 104.083 164.008C103.71 163.793 103.285 163.686 102.809 163.686C102.333 163.686 101.909 163.793 101.535 164.008C101.162 164.223 100.863 164.526 100.639 164.918C100.415 165.301 100.303 165.758 100.303 166.29C100.303 166.813 100.415 167.275 100.639 167.676C100.863 168.068 101.162 168.371 101.535 168.586C101.909 168.801 102.333 168.908 102.809 168.908ZM111.766 172.8C111.085 172.8 110.422 172.702 109.778 172.506C109.143 172.319 108.625 172.049 108.224 171.694L108.868 170.658C109.213 170.957 109.638 171.19 110.142 171.358C110.646 171.535 111.173 171.624 111.724 171.624C112.601 171.624 113.245 171.419 113.656 171.008C114.067 170.597 114.272 169.972 114.272 169.132L114.272 167.564L114.412 166.094L114.342 164.61L114.342 162.58L115.616 162.58L115.616 168.992C115.616 170.299 115.289 171.26 114.636 171.876C113.983 172.492 113.026 172.8 111.766 172.8ZM111.598 169.692C110.879 169.692 110.235 169.543 109.666 169.244C109.106 168.936 108.658 168.511 108.322 167.97C107.995 167.429 107.832 166.803 107.832 166.094C107.832 165.375 107.995 164.75 108.322 164.218C108.658 163.677 109.106 163.257 109.666 162.958C110.235 162.659 110.879 162.51 111.598 162.51C112.233 162.51 112.811 162.641 113.334 162.902C113.857 163.154 114.272 163.546 114.58 164.078C114.897 164.61 115.056 165.282 115.056 166.094C115.056 166.897 114.897 167.564 114.58 168.096C114.272 168.628 113.857 169.029 113.334 169.3C112.811 169.561 112.233 169.692 111.598 169.692ZM111.752 168.516C112.247 168.516 112.685 168.413 113.068 168.208C113.451 168.003 113.749 167.718 113.964 167.354C114.188 166.99 114.3 166.57 114.3 166.094C114.3 165.618 114.188 165.198 113.964 164.834C113.749 164.47 113.451 164.19 113.068 163.994C112.685 163.789 112.247 163.686 111.752 163.686C111.257 163.686 110.814 163.789 110.422 163.994C110.039 164.19 109.736 164.47 109.512 164.834C109.297 165.198 109.19 165.618 109.19 166.094C109.19 166.57 109.297 166.99 109.512 167.354C109.736 167.718 110.039 168.003 110.422 168.208C110.814 168.413 111.257 168.516 111.752 168.516ZM121.488 170.084C120.695 170.084 119.995 169.921 119.388 169.594C118.791 169.267 118.324 168.819 117.988 168.25C117.661 167.681 117.498 167.027 117.498 166.29C117.498 165.553 117.657 164.899 117.974 164.33C118.301 163.761 118.744 163.317 119.304 163C119.873 162.673 120.513 162.51 121.222 162.51C121.941 162.51 122.575 162.669 123.126 162.986C123.677 163.303 124.106 163.751 124.414 164.33C124.731 164.899 124.89 165.567 124.89 166.332C124.89 166.388 124.885 166.453 124.876 166.528C124.876 166.603 124.871 166.673 124.862 166.738L118.548 166.738L118.548 165.772L124.162 165.772L123.616 166.108C123.625 165.632 123.527 165.207 123.322 164.834C123.117 164.461 122.832 164.171 122.468 163.966C122.113 163.751 121.698 163.644 121.222 163.644C120.755 163.644 120.34 163.751 119.976 163.966C119.612 164.171 119.327 164.465 119.122 164.848C118.917 165.221 118.814 165.651 118.814 166.136L118.814 166.36C118.814 166.855 118.926 167.298 119.15 167.69C119.383 168.073 119.705 168.371 120.116 168.586C120.527 168.801 120.998 168.908 121.53 168.908C121.969 168.908 122.365 168.833 122.72 168.684C123.084 168.535 123.401 168.311 123.672 168.012L124.414 168.88C124.078 169.272 123.658 169.571 123.154 169.776C122.659 169.981 122.104 170.084 121.488 170.084ZM129.304 170.084C128.558 170.084 127.979 169.883 127.568 169.482C127.158 169.081 126.952 168.507 126.952 167.76L126.952 160.956L128.296 160.956L128.296 167.704C128.296 168.105 128.394 168.413 128.59 168.628C128.796 168.843 129.085 168.95 129.458 168.95C129.878 168.95 130.228 168.833 130.508 168.6L130.928 169.566C130.723 169.743 130.476 169.874 130.186 169.958C129.906 170.042 129.612 170.084 129.304 170.084ZM125.692 163.686L125.692 162.58L130.424 162.58L130.424 163.686L125.692 163.686ZM136.515 162.51C137.122 162.51 137.654 162.627 138.111 162.86C138.578 163.093 138.942 163.448 139.203 163.924C139.465 164.4 139.595 165.002 139.595 165.73L139.595 170L138.251 170L138.251 165.884C138.251 165.165 138.074 164.624 137.719 164.26C137.374 163.896 136.884 163.714 136.249 163.714C135.773 163.714 135.358 163.807 135.003 163.994C134.649 164.181 134.373 164.456 134.177 164.82C133.991 165.184 133.897 165.637 133.897 166.178L133.897 170L132.553 170L132.553 159.612L133.897 159.612L133.897 164.582L133.631 164.05C133.874 163.565 134.247 163.187 134.751 162.916C135.255 162.645 135.843 162.51 136.515 162.51ZM145.387 170.084C144.593 170.084 143.893 169.921 143.287 169.594C142.689 169.267 142.223 168.819 141.887 168.25C141.56 167.681 141.397 167.027 141.397 166.29C141.397 165.553 141.555 164.899 141.873 164.33C142.199 163.761 142.643 163.317 143.203 163C143.772 162.673 144.411 162.51 145.121 162.51C145.839 162.51 146.474 162.669 147.025 162.986C147.575 163.303 148.005 163.751 148.313 164.33C148.63 164.899 148.789 165.567 148.789 166.332C148.789 166.388 148.784 166.453 148.775 166.528C148.775 166.603 148.77 166.673 148.761 166.738L142.447 166.738L142.447 165.772L148.061 165.772L147.515 166.108C147.524 165.632 147.426 165.207 147.221 164.834C147.015 164.461 146.731 164.171 146.367 163.966C146.012 163.751 145.597 163.644 145.121 163.644C144.654 163.644 144.239 163.751 143.875 163.966C143.511 164.171 143.226 164.465 143.021 164.848C142.815 165.221 142.713 165.651 142.713 166.136L142.713 166.36C142.713 166.855 142.825 167.298 143.049 167.69C143.282 168.073 143.604 168.371 144.015 168.586C144.425 168.801 144.897 168.908 145.429 168.908C145.867 168.908 146.264 168.833 146.619 168.684C146.983 168.535 147.3 168.311 147.571 168.012L148.313 168.88C147.977 169.272 147.557 169.571 147.053 169.776C146.558 169.981 146.003 170.084 145.387 170.084ZM150.655 170L150.655 162.58L151.943 162.58L151.943 164.596L151.817 164.092C152.022 163.579 152.367 163.187 152.853 162.916C153.338 162.645 153.935 162.51 154.645 162.51L154.645 163.812C154.589 163.803 154.533 163.798 154.477 163.798C154.43 163.798 154.383 163.798 154.337 163.798C153.618 163.798 153.049 164.013 152.629 164.442C152.209 164.871 151.999 165.492 151.999 166.304L151.999 170L150.655 170Z" fill="black"/>
<line x1="84.5001" y1="48" x2="84.5001" y2="87" stroke="#0078CC"/>
<line x1="83.5" y1="321" x2="83.5" y2="276" stroke="#0078CC"/>
</svg>
