<svg width="45" height="21" viewBox="0 0 45 21" fill="none" xmlns="http://www.w3.org/2000/svg">
<path d="M43.4544 16.636C44.2553 16.4242 44.7329 15.6033 44.5211 14.8024L41.0701 1.75096C40.8583 0.950053 40.0374 0.47247 39.2365 0.684243C38.4356 0.896016 37.958 1.71695 38.1698 2.51785L41.2373 14.1191L29.6361 17.1867C28.8352 17.3985 28.3576 18.2194 28.5693 19.0203C28.7811 19.8212 29.6021 20.2988 30.403 20.0871L43.4544 16.636ZM28.2457 8.29656L42.3167 16.4824L43.8252 13.8893L29.7543 5.70344L28.2457 8.29656Z" fill="#0062A5"/>
<rect x="0.695619" y="16.8466" width="21.3669" height="2" transform="rotate(-34.6582 0.695619 16.8466)" fill="#0062A5" stroke="#0062A5"/>
<rect x="21.6819" y="3" width="3" height="1" transform="rotate(19.9343 21.6819 3)" fill="#0062A5"/>
<rect x="26" y="2.0205" width="3" height="1.5" transform="rotate(-0.391477 26 2.0205)" fill="#0062A5"/>
<rect x="23" y="6.5996" width="3" height="2" transform="rotate(-11.5292 23 6.5996)" fill="#0062A5"/>
</svg>
